<?xml version="1.0" encoding="UTF-8"?>
<svg xmlns="http://www.w3.org/2000/svg" xmlns:xlink="http://www.w3.org/1999/xlink" width="500px" height="500px" viewBox="0 0 500 500" version="1.1">
<g id="surface1">
<path style=" stroke:none;fill-rule:nonzero;fill:rgb(74.901962%,90.588236%,97.254902%);fill-opacity:1;" d="M 391.890625 53.667969 C 391.960938 53.703125 392.035156 53.738281 392.109375 53.777344 C 392.097656 53.835938 392.082031 53.898438 392.066406 53.960938 C 389.839844 63.246094 389.839844 63.246094 387.617188 72.535156 C 387.59375 72.636719 387.570312 72.738281 387.542969 72.84375 C 387.273438 73.972656 387.003906 75.101562 386.734375 76.230469 C 386.269531 78.175781 385.804688 80.121094 385.339844 82.066406 C 385.289062 82.277344 385.238281 82.488281 385.1875 82.695312 C 383.957031 87.851562 382.722656 93.003906 381.488281 98.15625 C 381.027344 100.082031 380.570312 102.003906 380.109375 103.925781 C 380.058594 104.128906 380.058594 104.128906 380.011719 104.332031 C 379.785156 105.277344 379.558594 106.222656 379.332031 107.167969 C 379.074219 108.246094 378.816406 109.324219 378.558594 110.40625 C 378.527344 110.539062 378.496094 110.671875 378.460938 110.8125 C 378 112.738281 377.539062 114.667969 377.078125 116.59375 C 375.851562 121.714844 374.625 126.832031 373.402344 131.953125 C 373.351562 132.160156 373.300781 132.371094 373.253906 132.578125 C 372.789062 134.523438 372.324219 136.464844 371.859375 138.40625 C 371.589844 139.535156 371.320312 140.667969 371.046875 141.796875 C 371.023438 141.902344 371 142.003906 370.972656 142.109375 C 370.023438 146.089844 369.070312 150.070312 368.113281 154.050781 C 367.183594 157.933594 366.253906 161.8125 365.328125 165.695312 C 365.277344 165.898438 365.230469 166.101562 365.179688 166.304688 C 365.082031 166.714844 364.984375 167.128906 364.886719 167.539062 C 364.859375 167.640625 364.835938 167.746094 364.8125 167.851562 C 364.761719 168.058594 364.710938 168.269531 364.660156 168.476562 C 364.007812 171.207031 363.355469 173.933594 362.703125 176.664062 C 362.636719 176.9375 362.570312 177.214844 362.503906 177.488281 C 361.734375 180.714844 360.960938 183.941406 360.1875 187.167969 C 360.121094 187.453125 360.050781 187.734375 359.984375 188.015625 C 359.917969 188.296875 359.847656 188.582031 359.78125 188.863281 C 359.644531 189.425781 359.511719 189.992188 359.375 190.554688 C 359.324219 190.765625 359.324219 190.765625 359.273438 190.980469 C 358.289062 195.078125 357.308594 199.175781 356.332031 203.277344 C 355.324219 207.519531 354.308594 211.761719 353.292969 216 C 353.257812 216.140625 353.222656 216.28125 353.191406 216.425781 C 353.089844 216.847656 352.984375 217.273438 352.882812 217.699219 C 352.78125 218.125 352.679688 218.546875 352.578125 218.972656 C 352.511719 219.257812 352.441406 219.539062 352.375 219.824219 C 351.617188 222.984375 350.859375 226.144531 350.105469 229.304688 C 350.039062 229.574219 349.976562 229.84375 349.910156 230.117188 C 349.652344 231.195312 349.394531 232.273438 349.136719 233.351562 C 348.519531 235.921875 347.90625 238.492188 347.292969 241.058594 C 347.066406 242.003906 346.839844 242.945312 346.613281 243.890625 C 346 246.453125 345.386719 249.011719 344.773438 251.574219 C 344.550781 252.507812 344.328125 253.441406 344.105469 254.375 C 343.914062 255.164062 343.726562 255.949219 343.539062 256.738281 C 342.542969 260.898438 341.550781 265.0625 340.554688 269.222656 C 371.320312 269.222656 402.082031 269.222656 433.777344 269.222656 C 433.515625 274.953125 433.515625 274.953125 433.355469 276.921875 C 433.34375 277.039062 433.335938 277.15625 433.324219 277.273438 C 432.519531 287.230469 430.921875 297.074219 428.554688 306.777344 C 428.53125 306.871094 428.507812 306.96875 428.484375 307.066406 C 426.050781 317.0625 422.683594 326.84375 412.167969 349.359375 C 411.917969 349.8125 411.675781 350.269531 411.433594 350.730469 C 410.683594 352.128906 409.902344 353.507812 409.09375 354.875 C 408.878906 355.238281 408.667969 355.601562 408.453125 355.960938 C 407.476562 357.621094 406.476562 359.261719 405.445312 360.890625 C 405.394531 360.96875 405.34375 361.050781 405.289062 361.132812 C 403.222656 364.378906 401.046875 367.5625 398.777344 370.667969 C 398.683594 370.796875 398.683594 370.796875 398.585938 370.925781 C 397.667969 372.1875 396.730469 373.433594 395.777344 374.667969 C 395.714844 374.75 395.652344 374.832031 395.585938 374.914062 C 394.71875 376.039062 393.835938 377.152344 392.9375 378.25 C 392.792969 378.425781 392.652344 378.601562 392.507812 378.777344 C 392.015625 379.382812 391.515625 379.980469 391.007812 380.574219 C 390.683594 380.957031 390.363281 381.34375 390.046875 381.734375 C 389.617188 382.265625 389.164062 382.769531 388.703125 383.273438 C 388.417969 383.582031 388.140625 383.898438 387.863281 384.21875 C 387.550781 384.578125 387.226562 384.929688 386.910156 385.285156 C 386.703125 385.515625 386.5 385.746094 386.296875 385.980469 C 385.792969 386.558594 385.269531 387.121094 384.746094 387.683594 C 384.617188 387.824219 384.488281 387.960938 384.359375 388.101562 C 383.519531 389.007812 382.664062 389.898438 381.785156 390.769531 C 381.386719 391.164062 381.007812 391.566406 380.644531 391.996094 C 380.367188 392.308594 380.078125 392.601562 379.785156 392.894531 C 379.730469 392.949219 379.679688 393.003906 379.625 393.058594 C 379.324219 393.359375 379.011719 393.644531 378.691406 393.917969 C 378.15625 394.382812 377.664062 394.886719 377.167969 395.390625 C 376.609375 395.957031 376.046875 396.511719 375.441406 397.03125 C 375.042969 397.378906 374.660156 397.746094 374.277344 398.109375 C 373.742188 398.621094 373.199219 399.121094 372.640625 399.605469 C 372.394531 399.820312 372.152344 400.042969 371.910156 400.265625 C 371.523438 400.613281 371.132812 400.945312 370.730469 401.269531 C 370.304688 401.613281 369.898438 401.964844 369.5 402.332031 C 369.007812 402.785156 368.503906 403.210938 367.984375 403.628906 C 367.640625 403.910156 367.304688 404.199219 366.964844 404.484375 C 366.34375 405.015625 365.707031 405.519531 365.0625 406.023438 C 364.730469 406.28125 364.40625 406.542969 364.078125 406.808594 C 363.167969 407.542969 362.238281 408.242188 361.300781 408.941406 C 360.878906 409.257812 360.460938 409.578125 360.042969 409.902344 C 359.238281 410.523438 358.414062 411.113281 357.589844 411.703125 C 357.34375 411.882812 357.097656 412.058594 356.855469 412.238281 C 355.609375 413.152344 354.332031 414.011719 353.042969 414.859375 C 352.636719 415.128906 352.234375 415.398438 351.828125 415.671875 C 350.398438 416.628906 348.964844 417.585938 347.5 418.496094 C 347.300781 418.617188 347.101562 418.742188 346.898438 418.867188 C 345.101562 419.988281 343.285156 421.0625 341.445312 422.109375 C 341.335938 422.171875 341.226562 422.234375 341.113281 422.300781 C 338.515625 423.785156 335.886719 425.199219 333.222656 426.554688 C 333.140625 426.597656 333.058594 426.640625 332.972656 426.683594 C 330.453125 427.964844 327.917969 429.203125 325.328125 430.347656 C 325.113281 430.445312 324.898438 430.539062 324.683594 430.636719 C 315.726562 434.644531 306.429688 437.875 294 441.109375 C 293.902344 441.136719 293.804688 441.160156 293.703125 441.183594 C 282.816406 443.851562 271.734375 445.417969 260.554688 446.109375 C 260.449219 446.117188 260.339844 446.125 260.226562 446.132812 C 253.382812 446.5625 246.402344 446.535156 239.554688 446.109375 C 239.4375 446.105469 239.324219 446.097656 239.203125 446.089844 C 227.109375 445.359375 215.082031 443.515625 190.808594 436.644531 C 190.550781 436.554688 190.289062 436.464844 190.03125 436.375 C 184.421875 434.464844 178.945312 432.238281 173.554688 429.777344 C 173.375 429.695312 173.375 429.695312 173.1875 429.613281 C 171.195312 428.707031 169.234375 427.742188 167.277344 426.765625 C 167.15625 426.703125 167.035156 426.640625 166.90625 426.578125 C 165.339844 425.796875 163.789062 424.992188 162.257812 424.140625 C 162.03125 424.015625 161.804688 423.890625 161.578125 423.769531 C 159.820312 422.804688 158.085938 421.804688 156.367188 420.773438 C 156.003906 420.558594 155.644531 420.34375 155.28125 420.128906 C 155.046875 419.988281 154.8125 419.847656 154.578125 419.707031 C 154.425781 419.617188 154.425781 419.617188 154.273438 419.527344 C 152.347656 418.375 150.46875 417.140625 148.597656 415.90625 C 148.28125 415.699219 147.96875 415.492188 147.652344 415.289062 C 146.605469 414.597656 145.570312 413.894531 144.566406 413.144531 C 144.152344 412.835938 143.730469 412.539062 143.304688 412.242188 C 141.550781 411.011719 139.84375 409.722656 138.144531 408.417969 C 137.925781 408.25 137.703125 408.082031 137.484375 407.914062 C 136.667969 407.292969 135.871094 406.652344 135.078125 406.003906 C 134.753906 405.734375 134.421875 405.472656 134.089844 405.207031 C 133.601562 404.820312 133.128906 404.417969 132.652344 404.015625 C 132.277344 403.695312 131.898438 403.378906 131.515625 403.070312 C 130.433594 402.1875 129.386719 401.265625 128.355469 400.328125 C 128.132812 400.128906 127.90625 399.933594 127.679688 399.734375 C 127.246094 399.355469 126.820312 398.964844 126.394531 398.574219 C 126.054688 398.261719 125.710938 397.953125 125.367188 397.644531 C 124.070312 396.476562 122.808594 395.269531 121.582031 394.023438 C 121.210938 393.648438 120.839844 393.285156 120.4375 392.941406 C 119.984375 392.550781 119.582031 392.125 119.179688 391.6875 C 118.441406 390.890625 117.683594 390.121094 116.910156 389.359375 C 116.46875 388.921875 116.046875 388.472656 115.640625 388 C 115.292969 387.605469 114.929688 387.226562 114.570312 386.847656 C 113.925781 386.164062 113.289062 385.480469 112.667969 384.777344 C 112.574219 384.675781 112.574219 384.675781 112.480469 384.566406 C 111.890625 383.898438 111.3125 383.21875 110.730469 382.539062 C 110.558594 382.339844 110.386719 382.136719 110.214844 381.9375 C 109.9375 381.613281 109.660156 381.289062 109.382812 380.96875 C 109.277344 380.84375 109.171875 380.71875 109.066406 380.59375 C 108.441406 379.871094 107.835938 379.136719 107.25 378.382812 C 106.863281 377.886719 106.46875 377.398438 106.070312 376.910156 C 105.390625 376.078125 104.734375 375.226562 104.085938 374.371094 C 103.871094 374.089844 103.65625 373.808594 103.441406 373.527344 C 102.703125 372.566406 101.972656 371.601562 101.273438 370.609375 C 101.074219 370.328125 100.875 370.046875 100.671875 369.769531 C 98.644531 366.992188 96.734375 364.121094 94.890625 361.222656 C 94.800781 361.082031 94.800781 361.082031 94.710938 360.941406 C 93.554688 359.121094 92.449219 357.273438 91.359375 355.417969 C 91.136719 355.042969 90.914062 354.664062 90.691406 354.289062 C 89.847656 352.867188 89.058594 351.425781 88.285156 349.96875 C 87.996094 349.425781 87.703125 348.886719 87.40625 348.351562 C 85.839844 345.527344 84.433594 342.605469 83.101562 339.664062 C 82.992188 339.429688 82.882812 339.191406 82.777344 338.957031 C 81.480469 336.132812 80.261719 333.28125 79.113281 330.394531 C 79.007812 330.125 78.898438 329.859375 78.792969 329.59375 C 77.667969 326.800781 76.777344 323.941406 75.910156 321.058594 C 75.5625 319.90625 75.210938 318.757812 74.859375 317.609375 C 74.738281 317.210938 74.613281 316.808594 74.492188 316.40625 C 74.460938 316.304688 74.429688 316.203125 74.398438 316.101562 C 74.191406 315.421875 73.984375 314.738281 73.777344 314.058594 C 73.75 313.964844 73.71875 313.875 73.691406 313.777344 C 73.550781 313.320312 73.410156 312.859375 73.273438 312.398438 C 72.996094 311.496094 72.722656 310.59375 72.441406 309.691406 C 71.914062 307.988281 71.394531 306.292969 71.007812 304.554688 C 70.960938 304.359375 70.917969 304.164062 70.875 303.96875 C 69.824219 299.308594 68.929688 294.613281 68.222656 289.890625 C 68.207031 289.789062 68.191406 289.6875 68.175781 289.585938 C 67.0625 282.164062 66.441406 274.660156 66.269531 267.160156 C 66.269531 267.058594 66.265625 266.957031 66.265625 266.851562 C 66.214844 264.714844 66.199219 262.582031 66.222656 260.445312 C 66.222656 260.355469 66.222656 260.265625 66.226562 260.171875 C 66.351562 249.121094 67.480469 238.0625 69.601562 227.214844 C 69.664062 226.894531 69.726562 226.570312 69.789062 226.25 C 70.871094 220.699219 72.246094 215.1875 73.890625 209.777344 C 73.921875 209.667969 73.953125 209.558594 73.988281 209.449219 C 77.015625 199.484375 80.867188 189.859375 87.695312 176.222656 C 87.9375 175.78125 88.175781 175.332031 88.410156 174.882812 C 89 173.738281 89.644531 172.625 90.300781 171.515625 C 90.589844 171.023438 90.871094 170.527344 91.144531 170.027344 C 92.253906 168.03125 93.480469 166.09375 94.710938 164.167969 C 94.914062 163.851562 95.113281 163.535156 95.316406 163.214844 C 96.160156 161.886719 97.019531 160.570312 97.921875 159.273438 C 98.128906 158.972656 98.335938 158.671875 98.546875 158.371094 C 99.457031 157.050781 100.386719 155.742188 101.332031 154.445312 C 101.394531 154.359375 101.457031 154.273438 101.523438 154.183594 C 102.445312 152.925781 103.378906 151.679688 104.332031 150.445312 C 104.429688 150.320312 104.429688 150.320312 104.523438 150.195312 C 105.390625 149.070312 106.273438 147.960938 107.175781 146.859375 C 107.316406 146.6875 107.460938 146.511719 107.601562 146.335938 C 108.09375 145.730469 108.597656 145.132812 109.101562 144.539062 C 109.425781 144.152344 109.746094 143.765625 110.0625 143.375 C 110.492188 142.847656 110.945312 142.339844 111.40625 141.839844 C 111.691406 141.527344 111.96875 141.210938 112.246094 140.890625 C 112.5625 140.53125 112.882812 140.179688 113.203125 139.824219 C 113.410156 139.597656 113.609375 139.363281 113.8125 139.132812 C 114.316406 138.550781 114.84375 137.988281 115.367188 137.425781 C 115.496094 137.289062 115.625 137.148438 115.753906 137.011719 C 116.59375 136.101562 117.445312 135.214844 118.324219 134.34375 C 118.722656 133.945312 119.101562 133.542969 119.46875 133.113281 C 119.742188 132.804688 120.035156 132.507812 120.328125 132.214844 C 120.378906 132.160156 120.433594 132.109375 120.488281 132.050781 C 120.789062 131.753906 121.097656 131.46875 121.421875 131.191406 C 121.957031 130.726562 122.449219 130.226562 122.945312 129.722656 C 123.503906 129.152344 124.0625 128.601562 124.667969 128.082031 C 125.066406 127.734375 125.449219 127.363281 125.832031 127 C 126.367188 126.492188 126.90625 125.992188 127.464844 125.507812 C 127.734375 125.273438 127.996094 125.035156 128.257812 124.792969 C 128.761719 124.332031 129.28125 123.898438 129.8125 123.46875 C 130.105469 123.226562 130.386719 122.976562 130.667969 122.722656 C 131.136719 122.292969 131.625 121.886719 132.121094 121.484375 C 132.46875 121.203125 132.804688 120.914062 133.144531 120.625 C 133.765625 120.097656 134.402344 119.589844 135.046875 119.089844 C 135.382812 118.828125 135.71875 118.558594 136.050781 118.289062 C 137.019531 117.511719 138.007812 116.75 139 116 C 139.074219 115.945312 139.148438 115.886719 139.222656 115.828125 C 140.230469 115.066406 141.25 114.320312 142.277344 113.582031 C 142.59375 113.355469 142.90625 113.128906 143.21875 112.894531 C 144.707031 111.800781 146.246094 110.789062 147.785156 109.769531 C 148.335938 109.40625 148.878906 109.042969 149.425781 108.675781 C 150.566406 107.910156 151.722656 107.167969 152.890625 106.445312 C 153.050781 106.34375 153.050781 106.34375 153.21875 106.238281 C 156.703125 104.070312 160.269531 102.046875 163.890625 100.109375 C 163.980469 100.0625 164.074219 100.011719 164.171875 99.960938 C 167.714844 98.070312 171.316406 96.269531 174.992188 94.65625 C 175.230469 94.550781 175.46875 94.445312 175.707031 94.34375 C 185.632812 89.957031 195.933594 86.441406 241.507812 78.902344 C 241.695312 78.890625 241.882812 78.882812 242.070312 78.875 C 244.453125 78.757812 246.839844 78.757812 249.226562 78.757812 C 249.683594 78.757812 250.136719 78.757812 250.59375 78.753906 C 254.917969 78.742188 259.230469 78.867188 263.542969 79.195312 C 263.664062 79.203125 263.789062 79.210938 263.914062 79.222656 C 275.949219 80.121094 287.878906 82.175781 305.28125 87.136719 C 305.546875 87.21875 305.808594 87.300781 306.074219 87.382812 C 315.386719 90.289062 324.375 94.121094 334.332031 99.109375 C 334.878906 98.703125 335.421875 98.292969 335.957031 97.867188 C 336.09375 97.761719 336.230469 97.652344 336.367188 97.546875 C 336.433594 97.492188 336.503906 97.4375 336.574219 97.382812 C 336.769531 97.230469 336.964844 97.074219 337.160156 96.921875 C 337.855469 96.378906 338.546875 95.828125 339.230469 95.269531 C 339.761719 94.835938 340.292969 94.410156 340.839844 93.992188 C 341.359375 93.597656 341.871094 93.195312 342.382812 92.785156 C 343.238281 92.097656 344.105469 91.417969 344.96875 90.738281 C 345.703125 90.164062 346.4375 89.585938 347.167969 89 C 348.023438 88.3125 348.882812 87.636719 349.746094 86.960938 C 350.484375 86.382812 351.214844 85.804688 351.945312 85.222656 C 352.800781 84.535156 353.664062 83.859375 354.527344 83.183594 C 355.261719 82.605469 355.992188 82.027344 356.722656 81.445312 C 357.578125 80.757812 358.441406 80.082031 359.304688 79.40625 C 360.039062 78.828125 360.769531 78.25 361.5 77.667969 C 362.355469 76.980469 363.21875 76.304688 364.082031 75.628906 C 364.816406 75.050781 365.550781 74.472656 366.277344 73.890625 C 367.132812 73.203125 367.996094 72.527344 368.859375 71.847656 C 369.59375 71.273438 370.328125 70.695312 371.054688 70.109375 C 371.910156 69.425781 372.773438 68.746094 373.636719 68.070312 C 374.371094 67.496094 375.105469 66.917969 375.832031 66.332031 C 376.75 65.597656 377.675781 64.871094 378.601562 64.148438 C 379.300781 63.601562 379.988281 63.050781 380.671875 62.492188 C 381.324219 61.964844 381.980469 61.445312 382.644531 60.9375 C 383.59375 60.214844 384.527344 59.46875 385.453125 58.714844 C 386.101562 58.1875 386.757812 57.667969 387.421875 57.160156 C 388.460938 56.367188 389.480469 55.554688 390.488281 54.722656 C 390.945312 54.351562 391.40625 54.003906 391.890625 53.667969 Z M 241.222656 129.109375 C 241.121094 129.117188 241.023438 129.125 240.917969 129.132812 C 235.878906 129.488281 230.863281 130.109375 225.890625 131 C 225.742188 131.027344 225.742188 131.027344 225.597656 131.050781 C 220.136719 132.035156 214.71875 133.394531 209.445312 135.109375 C 209.335938 135.144531 209.226562 135.179688 209.117188 135.21875 C 204.65625 136.671875 200.277344 138.300781 196 140.222656 C 195.882812 140.273438 195.765625 140.328125 195.644531 140.382812 C 192.183594 141.9375 188.761719 143.59375 185.445312 145.445312 C 185.34375 145.5 185.238281 145.558594 185.132812 145.617188 C 180.839844 148.007812 176.652344 150.632812 172.664062 153.507812 C 172.421875 153.683594 172.179688 153.855469 171.9375 154.027344 C 171.011719 154.691406 170.097656 155.367188 169.199219 156.066406 C 168.96875 156.246094 168.738281 156.421875 168.507812 156.601562 C 167.589844 157.316406 166.675781 158.035156 165.777344 158.777344 C 165.582031 158.9375 165.382812 159.097656 165.1875 159.257812 C 164.515625 159.808594 163.859375 160.371094 163.199219 160.941406 C 163.003906 161.109375 162.808594 161.273438 162.609375 161.441406 C 161.863281 162.074219 161.140625 162.71875 160.425781 163.386719 C 160.089844 163.703125 159.753906 164.011719 159.402344 164.3125 C 159.035156 164.628906 158.695312 164.964844 158.359375 165.3125 C 158.148438 165.519531 157.933594 165.707031 157.710938 165.902344 C 157.207031 166.339844 156.734375 166.804688 156.261719 167.277344 C 156.175781 167.367188 156.085938 167.453125 155.996094 167.542969 C 155.8125 167.730469 155.625 167.914062 155.441406 168.101562 C 155.160156 168.382812 154.878906 168.660156 154.597656 168.941406 C 154.417969 169.125 154.234375 169.304688 154.054688 169.484375 C 153.929688 169.609375 153.929688 169.609375 153.804688 169.738281 C 153.351562 170.1875 152.921875 170.648438 152.507812 171.132812 C 152.328125 171.339844 152.140625 171.53125 151.945312 171.722656 C 151.613281 172.050781 151.304688 172.390625 151 172.746094 C 150.785156 172.992188 150.5625 173.234375 150.339844 173.476562 C 149.800781 174.054688 149.292969 174.644531 148.796875 175.261719 C 148.558594 175.550781 148.308594 175.832031 148.054688 176.109375 C 147.53125 176.6875 147.042969 177.285156 146.554688 177.890625 C 146.441406 178.03125 146.324219 178.171875 146.210938 178.3125 C 145.515625 179.164062 144.828125 180.019531 144.164062 180.894531 C 143.972656 181.148438 143.777344 181.402344 143.582031 181.652344 C 142.710938 182.789062 141.859375 183.9375 141.042969 185.113281 C 140.894531 185.324219 140.746094 185.535156 140.59375 185.746094 C 138.203125 189.0625 136.027344 192.5625 134 196.109375 C 133.902344 196.28125 133.902344 196.28125 133.804688 196.453125 C 132.945312 197.957031 132.125 199.476562 131.335938 201.019531 C 131.132812 201.414062 130.925781 201.808594 130.714844 202.199219 C 129.921875 203.667969 129.226562 205.171875 128.535156 206.6875 C 128.445312 206.882812 128.355469 207.082031 128.265625 207.277344 C 125.140625 214.074219 122.613281 221.171875 120.734375 228.410156 C 120.667969 228.664062 120.601562 228.914062 120.535156 229.167969 C 117.976562 238.867188 116.636719 248.929688 116.496094 269.296875 C 116.5 269.386719 116.503906 269.476562 116.511719 269.566406 C 116.539062 270.160156 116.597656 270.746094 116.667969 271.332031 C 117.804688 270.484375 118.929688 269.617188 120.039062 268.726562 C 120.507812 268.347656 120.976562 267.976562 121.453125 267.605469 C 121.515625 267.554688 121.578125 267.503906 121.644531 267.453125 C 121.964844 267.203125 122.285156 266.953125 122.601562 266.703125 C 123.300781 266.160156 123.988281 265.609375 124.671875 265.046875 C 125.324219 264.519531 125.980469 264.003906 126.644531 263.496094 C 127.59375 262.769531 128.527344 262.027344 129.453125 261.269531 C 130.101562 260.742188 130.757812 260.226562 131.421875 259.714844 C 132.371094 258.992188 133.304688 258.25 134.230469 257.492188 C 134.878906 256.964844 135.535156 256.445312 136.199219 255.9375 C 137.148438 255.214844 138.082031 254.46875 139.007812 253.714844 C 139.539062 253.28125 140.074219 252.851562 140.617188 252.4375 C 141.136719 252.042969 141.648438 251.636719 142.160156 251.230469 C 143.015625 250.539062 143.882812 249.859375 144.746094 249.183594 C 145.484375 248.605469 146.214844 248.027344 146.945312 247.445312 C 147.800781 246.757812 148.664062 246.082031 149.527344 245.40625 C 150.261719 244.828125 150.992188 244.25 151.722656 243.667969 C 152.578125 242.980469 153.441406 242.304688 154.304688 241.628906 C 155.039062 241.050781 155.769531 240.472656 156.5 239.890625 C 157.355469 239.203125 158.21875 238.527344 159.082031 237.847656 C 159.816406 237.273438 160.550781 236.695312 161.277344 236.109375 C 162.132812 235.425781 162.996094 234.746094 163.859375 234.070312 C 164.59375 233.496094 165.328125 232.917969 166.054688 232.332031 C 166.910156 231.648438 167.773438 230.96875 168.636719 230.292969 C 169.371094 229.71875 170.105469 229.140625 170.832031 228.554688 C 171.6875 227.871094 172.550781 227.191406 173.414062 226.515625 C 174.148438 225.941406 174.882812 225.363281 175.609375 224.777344 C 176.527344 224.042969 177.453125 223.316406 178.378906 222.589844 C 179.078125 222.046875 179.765625 221.496094 180.453125 220.9375 C 181.101562 220.40625 181.757812 219.890625 182.421875 219.382812 C 183.371094 218.660156 184.304688 217.914062 185.230469 217.160156 C 185.878906 216.628906 186.535156 216.113281 187.199219 215.605469 C 188.148438 214.878906 189.082031 214.136719 190.007812 213.382812 C 190.65625 212.851562 191.3125 212.335938 191.976562 211.828125 C 192.925781 211.101562 193.859375 210.359375 194.785156 209.605469 C 195.433594 209.074219 196.089844 208.558594 196.753906 208.050781 C 197.703125 207.324219 198.636719 206.582031 199.5625 205.828125 C 200.09375 205.394531 200.628906 204.964844 201.171875 204.546875 C 201.691406 204.152344 202.207031 203.75 202.714844 203.339844 C 203.574219 202.652344 204.4375 201.972656 205.304688 201.292969 C 206.039062 200.71875 206.769531 200.140625 207.5 199.554688 C 208.355469 198.871094 209.21875 198.191406 210.082031 197.515625 C 210.816406 196.941406 211.550781 196.363281 212.277344 195.777344 C 213.132812 195.09375 213.996094 194.414062 214.859375 193.738281 C 215.59375 193.164062 216.328125 192.585938 217.054688 192 C 217.910156 191.3125 218.773438 190.636719 219.636719 189.960938 C 220.371094 189.382812 221.105469 188.804688 221.832031 188.222656 C 222.6875 187.535156 223.550781 186.859375 224.414062 186.183594 C 225.148438 185.605469 225.882812 185.027344 226.609375 184.445312 C 227.464844 183.757812 228.328125 183.082031 229.191406 182.40625 C 229.925781 181.828125 230.660156 181.25 231.390625 180.667969 C 232.246094 179.980469 233.105469 179.304688 233.96875 178.628906 C 234.703125 178.050781 235.4375 177.472656 236.167969 176.890625 C 237.085938 176.152344 238.007812 175.425781 238.9375 174.703125 C 239.632812 174.160156 240.324219 173.609375 241.007812 173.046875 C 241.65625 172.519531 242.3125 172.003906 242.976562 171.496094 C 243.925781 170.769531 244.859375 170.027344 245.785156 169.269531 C 246.433594 168.742188 247.089844 168.226562 247.753906 167.714844 C 248.703125 166.992188 249.636719 166.25 250.5625 165.492188 C 251.210938 164.964844 251.867188 164.445312 252.535156 163.9375 C 253.480469 163.214844 254.414062 162.46875 255.339844 161.714844 C 255.871094 161.28125 256.40625 160.851562 256.953125 160.4375 C 257.472656 160.042969 257.984375 159.636719 258.492188 159.230469 C 259.351562 158.539062 260.214844 157.859375 261.082031 157.183594 C 261.816406 156.605469 262.550781 156.027344 263.277344 155.445312 C 264.132812 154.757812 264.996094 154.082031 265.859375 153.40625 C 266.59375 152.828125 267.328125 152.25 268.054688 151.667969 C 268.910156 150.980469 269.773438 150.304688 270.636719 149.628906 C 271.371094 149.050781 272.105469 148.472656 272.832031 147.890625 C 273.6875 147.203125 274.550781 146.527344 275.414062 145.847656 C 276.148438 145.273438 276.882812 144.695312 277.609375 144.109375 C 278.464844 143.425781 279.328125 142.746094 280.191406 142.070312 C 280.925781 141.496094 281.660156 140.917969 282.390625 140.332031 C 283.246094 139.648438 284.105469 138.96875 284.96875 138.292969 C 285.164062 138.144531 285.355469 137.992188 285.546875 137.839844 C 285.613281 137.789062 285.675781 137.742188 285.742188 137.6875 C 286.152344 137.367188 286.5625 137.039062 286.96875 136.710938 C 287.746094 136.089844 288.53125 135.480469 289.332031 134.890625 C 289.242188 134.648438 289.242188 134.648438 289.007812 134.574219 C 288.660156 134.46875 288.3125 134.359375 287.964844 134.257812 C 287.894531 134.234375 287.824219 134.214844 287.753906 134.195312 C 278.355469 131.410156 268.65625 129.808594 258.890625 129.109375 C 258.792969 129.105469 258.699219 129.097656 258.601562 129.089844 C 252.851562 128.683594 246.96875 128.699219 241.222656 129.109375 Z M 302.667969 195.222656 C 302.574219 195.296875 302.476562 195.371094 302.382812 195.445312 C 302.320312 195.496094 302.257812 195.542969 302.191406 195.59375 C 302.054688 195.703125 301.914062 195.816406 301.773438 195.925781 C 301.421875 196.199219 301.074219 196.472656 300.722656 196.746094 C 300.03125 197.289062 299.34375 197.839844 298.660156 198.394531 C 298.011719 198.925781 297.355469 199.441406 296.6875 199.949219 C 295.738281 200.675781 294.808594 201.417969 293.882812 202.171875 C 293.351562 202.605469 292.816406 203.035156 292.269531 203.453125 C 291.75 203.847656 291.238281 204.25 290.730469 204.660156 C 289.871094 205.347656 289.007812 206.027344 288.140625 206.707031 C 287.40625 207.28125 286.671875 207.859375 285.945312 208.445312 C 285.089844 209.128906 284.226562 209.808594 283.363281 210.484375 C 282.628906 211.058594 281.894531 211.636719 281.167969 212.222656 C 280.3125 212.90625 279.449219 213.585938 278.585938 214.261719 C 277.851562 214.835938 277.117188 215.414062 276.390625 216 C 275.535156 216.6875 274.671875 217.363281 273.808594 218.039062 C 273.074219 218.617188 272.339844 219.195312 271.609375 219.777344 C 270.753906 220.464844 269.894531 221.140625 269.03125 221.816406 C 268.296875 222.394531 267.5625 222.972656 266.832031 223.554688 C 265.976562 224.242188 265.117188 224.917969 264.253906 225.59375 C 263.515625 226.171875 262.785156 226.75 262.054688 227.332031 C 261.136719 228.070312 260.214844 228.796875 259.285156 229.519531 C 258.589844 230.0625 257.898438 230.613281 257.214844 231.171875 C 256.566406 231.703125 255.910156 232.21875 255.246094 232.726562 C 254.296875 233.453125 253.363281 234.195312 252.4375 234.953125 C 251.789062 235.480469 251.132812 235.996094 250.464844 236.503906 C 249.519531 237.230469 248.585938 237.972656 247.660156 238.730469 C 247.011719 239.257812 246.355469 239.773438 245.6875 240.285156 C 244.738281 241.007812 243.808594 241.75 242.882812 242.507812 C 242.351562 242.941406 241.816406 243.367188 241.269531 243.785156 C 240.75 244.179688 240.238281 244.585938 239.730469 244.992188 C 238.871094 245.683594 238.007812 246.359375 237.140625 247.039062 C 236.40625 247.617188 235.671875 248.195312 234.945312 248.777344 C 234.089844 249.464844 233.226562 250.140625 232.363281 250.816406 C 231.628906 251.394531 230.894531 251.972656 230.167969 252.554688 C 229.3125 253.242188 228.449219 253.917969 227.585938 254.59375 C 226.851562 255.171875 226.117188 255.75 225.390625 256.332031 C 224.535156 257.019531 223.671875 257.695312 222.808594 258.371094 C 222.074219 258.949219 221.339844 259.527344 220.609375 260.109375 C 219.753906 260.796875 218.894531 261.472656 218.03125 262.152344 C 217.296875 262.726562 216.5625 263.304688 215.832031 263.890625 C 214.976562 264.574219 214.117188 265.253906 213.253906 265.929688 C 212.433594 266.570312 211.621094 267.214844 210.808594 267.863281 C 210.339844 268.242188 209.863281 268.613281 209.382812 268.976562 C 209.328125 269.019531 209.277344 269.066406 209.222656 269.109375 C 209.222656 269.148438 209.222656 269.183594 209.222656 269.222656 C 234.265625 269.222656 259.308594 269.222656 285.109375 269.222656 C 285.589844 267.5 285.589844 267.5 286.023438 265.769531 C 286.042969 265.683594 286.0625 265.601562 286.082031 265.511719 C 286.105469 265.425781 286.125 265.339844 286.144531 265.246094 C 286.191406 265.058594 286.238281 264.867188 286.28125 264.675781 C 286.378906 264.265625 286.476562 263.855469 286.574219 263.445312 C 286.734375 262.78125 286.890625 262.117188 287.050781 261.449219 C 287.222656 260.730469 287.394531 260.011719 287.566406 259.292969 C 288 257.460938 288.4375 255.625 288.878906 253.792969 C 288.910156 253.660156 288.941406 253.523438 288.976562 253.386719 C 289.140625 252.699219 289.304688 252.015625 289.46875 251.328125 C 289.800781 249.941406 290.132812 248.550781 290.464844 247.164062 C 290.496094 247.027344 290.53125 246.890625 290.5625 246.75 C 291.191406 244.132812 291.816406 241.511719 292.445312 238.890625 C 293.402344 234.878906 294.363281 230.867188 295.324219 226.855469 C 296.265625 222.925781 297.203125 218.996094 298.144531 215.066406 C 298.742188 212.558594 299.34375 210.054688 299.941406 207.550781 C 300.050781 207.101562 300.15625 206.652344 300.265625 206.203125 C 300.335938 205.90625 300.40625 205.605469 300.476562 205.308594 C 300.496094 205.234375 300.511719 205.160156 300.53125 205.085938 C 300.757812 204.136719 300.984375 203.191406 301.210938 202.242188 C 301.34375 201.699219 301.472656 201.152344 301.601562 200.609375 C 301.664062 200.355469 301.722656 200.105469 301.785156 199.851562 C 301.8125 199.734375 301.839844 199.613281 301.871094 199.492188 C 301.914062 199.316406 301.914062 199.316406 301.953125 199.140625 C 302.007812 198.917969 302.0625 198.695312 302.113281 198.472656 C 302.230469 197.976562 302.351562 197.480469 302.476562 196.984375 C 302.496094 196.898438 302.519531 196.8125 302.539062 196.722656 C 302.582031 196.5625 302.621094 196.402344 302.660156 196.242188 C 302.753906 195.867188 302.808594 195.585938 302.667969 195.222656 Z M 132.445312 326 C 132.59375 326.449219 132.707031 326.769531 132.929688 327.164062 C 132.984375 327.261719 133.039062 327.355469 133.09375 327.453125 C 133.152344 327.554688 133.210938 327.660156 133.269531 327.765625 C 133.332031 327.875 133.394531 327.984375 133.460938 328.097656 C 133.675781 328.472656 133.894531 328.847656 134.109375 329.222656 C 134.152344 329.292969 134.191406 329.359375 134.234375 329.433594 C 135.328125 331.316406 136.449219 333.175781 137.660156 334.992188 C 137.871094 335.308594 138.085938 335.628906 138.296875 335.949219 C 140.140625 338.738281 142.050781 341.472656 144.109375 344.109375 C 144.160156 344.175781 144.210938 344.238281 144.261719 344.304688 C 144.863281 345.074219 145.46875 345.839844 146.09375 346.597656 C 146.253906 346.789062 146.410156 346.984375 146.570312 347.179688 C 147.144531 347.886719 147.730469 348.578125 148.324219 349.265625 C 148.546875 349.527344 148.769531 349.789062 148.992188 350.054688 C 149.648438 350.824219 150.320312 351.574219 151.015625 352.3125 C 151.34375 352.664062 151.671875 353.015625 151.984375 353.382812 C 152.300781 353.746094 152.632812 354.082031 152.980469 354.417969 C 153.1875 354.628906 153.378906 354.847656 153.574219 355.074219 C 153.980469 355.539062 154.410156 355.980469 154.847656 356.417969 C 154.925781 356.496094 155.003906 356.574219 155.082031 356.65625 C 155.246094 356.820312 155.410156 356.984375 155.578125 357.144531 C 155.824219 357.394531 156.074219 357.644531 156.324219 357.894531 C 156.484375 358.054688 156.644531 358.214844 156.804688 358.375 C 156.878906 358.449219 156.953125 358.523438 157.027344 358.597656 C 157.457031 359.027344 157.902344 359.4375 158.363281 359.832031 C 158.605469 360.042969 158.832031 360.269531 159.054688 360.5 C 159.421875 360.871094 159.800781 361.222656 160.199219 361.5625 C 160.441406 361.777344 160.679688 361.996094 160.917969 362.214844 C 161.5 362.753906 162.089844 363.261719 162.707031 363.757812 C 162.996094 363.996094 163.277344 364.246094 163.554688 364.5 C 164.128906 365.023438 164.730469 365.511719 165.332031 366 C 165.46875 366.109375 165.605469 366.222656 165.738281 366.332031 C 166.726562 367.140625 167.726562 367.921875 168.742188 368.691406 C 169.015625 368.902344 169.289062 369.109375 169.558594 369.320312 C 170.773438 370.253906 172.003906 371.152344 173.265625 372.019531 C 173.570312 372.230469 173.875 372.445312 174.175781 372.660156 C 175.609375 373.667969 177.066406 374.628906 178.554688 375.554688 C 178.652344 375.617188 178.75 375.675781 178.851562 375.738281 C 184.28125 379.144531 189.921875 382.1875 195.777344 384.789062 C 195.992188 384.886719 196.203125 384.980469 196.417969 385.074219 C 200.015625 386.683594 203.710938 388.0625 207.445312 389.332031 C 207.523438 389.359375 207.601562 389.386719 207.683594 389.414062 C 217.289062 392.6875 227.320312 394.746094 241.445312 396 C 241.542969 396.007812 241.636719 396.015625 241.738281 396.019531 C 244.609375 396.222656 247.484375 396.242188 250.359375 396.242188 C 250.449219 396.242188 250.535156 396.242188 250.625 396.242188 C 251.136719 396.242188 251.644531 396.242188 252.152344 396.242188 C 252.308594 396.242188 252.464844 396.242188 252.621094 396.242188 C 252.839844 396.242188 253.054688 396.238281 253.273438 396.238281 C 253.394531 396.238281 253.519531 396.238281 253.644531 396.238281 C 254.027344 396.222656 254.398438 396.171875 254.777344 396.109375 C 255.484375 393.316406 256.164062 390.515625 256.832031 387.710938 C 256.964844 387.152344 257.097656 386.597656 257.230469 386.039062 C 257.425781 385.226562 257.621094 384.414062 257.8125 383.601562 C 258.292969 381.589844 258.773438 379.582031 259.253906 377.570312 C 259.40625 376.945312 259.554688 376.316406 259.703125 375.691406 C 261.09375 369.875 262.488281 364.0625 263.878906 358.246094 C 264.792969 354.429688 265.707031 350.609375 266.621094 346.792969 C 266.792969 346.0625 266.96875 345.332031 267.144531 344.601562 C 268.246094 339.992188 269.347656 335.386719 270.445312 330.777344 C 270.546875 330.359375 270.644531 329.941406 270.746094 329.523438 C 270.863281 329.039062 270.976562 328.554688 271.089844 328.070312 C 271.132812 327.894531 271.175781 327.71875 271.21875 327.539062 C 271.277344 327.300781 271.332031 327.058594 271.390625 326.816406 C 271.4375 326.617188 271.4375 326.617188 271.488281 326.410156 C 271.558594 326.144531 271.558594 326.144531 271.554688 326 C 225.648438 326 179.742188 326 132.445312 326 Z M 326.890625 326 C 326.128906 329.035156 326.128906 329.035156 325.390625 332.074219 C 325.347656 332.25 325.304688 332.425781 325.261719 332.605469 C 325.171875 332.980469 325.085938 333.359375 324.996094 333.734375 C 324.847656 334.355469 324.699219 334.972656 324.554688 335.589844 C 324.527344 335.699219 324.5 335.808594 324.476562 335.917969 C 324.421875 336.140625 324.367188 336.363281 324.316406 336.589844 C 324.234375 336.933594 324.152344 337.277344 324.070312 337.621094 C 323.429688 340.300781 322.789062 342.984375 322.148438 345.667969 C 321.980469 346.355469 321.816406 347.042969 321.652344 347.730469 C 321.382812 348.851562 321.117188 349.96875 320.847656 351.089844 C 320.445312 352.773438 320.042969 354.453125 319.640625 356.136719 C 319.605469 356.277344 319.574219 356.414062 319.539062 356.554688 C 318.988281 358.859375 318.4375 361.160156 317.886719 363.464844 C 317.554688 364.859375 317.21875 366.253906 316.886719 367.648438 C 316.660156 368.589844 316.433594 369.53125 316.210938 370.476562 C 316.082031 371.015625 315.953125 371.550781 315.824219 372.089844 C 315.210938 374.652344 314.601562 377.214844 314 379.777344 C 314.074219 379.8125 314.148438 379.851562 314.222656 379.890625 C 314.503906 379.765625 314.503906 379.765625 314.820312 379.582031 C 314.945312 379.511719 315.070312 379.445312 315.195312 379.375 C 315.328125 379.296875 315.464844 379.222656 315.597656 379.144531 C 315.734375 379.070312 315.871094 378.992188 316.007812 378.914062 C 317.167969 378.261719 318.3125 377.585938 319.445312 376.890625 C 319.59375 376.796875 319.59375 376.796875 319.746094 376.707031 C 323.097656 374.648438 326.355469 372.4375 329.507812 370.089844 C 329.785156 369.882812 330.0625 369.675781 330.339844 369.472656 C 331.445312 368.652344 332.527344 367.8125 333.585938 366.933594 C 333.859375 366.710938 334.136719 366.488281 334.410156 366.265625 C 334.914062 365.851562 335.410156 365.429688 335.90625 365.007812 C 336.285156 364.6875 336.667969 364.375 337.054688 364.0625 C 337.652344 363.574219 338.214844 363.054688 338.777344 362.53125 C 339.035156 362.292969 339.292969 362.0625 339.554688 361.832031 C 340.128906 361.339844 340.679688 360.820312 341.234375 360.308594 C 341.371094 360.179688 341.507812 360.054688 341.640625 359.929688 C 342.761719 358.890625 343.851562 357.832031 344.925781 356.753906 C 345.175781 356.503906 345.425781 356.253906 345.675781 356.007812 C 345.835938 355.84375 346 355.683594 346.160156 355.519531 C 346.234375 355.449219 346.304688 355.375 346.382812 355.300781 C 346.804688 354.875 347.207031 354.4375 347.597656 353.980469 C 347.78125 353.773438 347.96875 353.582031 348.167969 353.390625 C 348.5 353.0625 348.804688 352.71875 349.109375 352.367188 C 349.328125 352.117188 349.550781 351.875 349.773438 351.636719 C 350.308594 351.058594 350.816406 350.464844 351.3125 349.851562 C 351.554688 349.558594 351.800781 349.277344 352.054688 349 C 352.578125 348.425781 353.066406 347.828125 353.554688 347.222656 C 353.671875 347.082031 353.785156 346.941406 353.902344 346.800781 C 354.597656 345.949219 355.28125 345.089844 355.945312 344.214844 C 356.140625 343.960938 356.335938 343.710938 356.527344 343.457031 C 357.394531 342.328125 358.242188 341.1875 359.054688 340.015625 C 359.226562 339.769531 359.402344 339.523438 359.574219 339.28125 C 361.253906 336.914062 362.828125 334.476562 364.332031 332 C 364.375 331.929688 364.417969 331.859375 364.464844 331.785156 C 365.054688 330.820312 365.621094 329.839844 366.1875 328.859375 C 366.292969 328.679688 366.292969 328.679688 366.398438 328.496094 C 366.730469 327.917969 367.0625 327.339844 367.382812 326.757812 C 367.4375 326.660156 367.492188 326.5625 367.550781 326.460938 C 367.683594 326.234375 367.683594 326.234375 367.667969 326 C 354.210938 326 340.753906 326 326.890625 326 Z M 326.890625 326 "/>
<path style=" stroke:none;fill-rule:nonzero;fill:rgb(24.313726%,31.764707%,47.843137%);fill-opacity:1;" d="M 391.890625 53.667969 C 391.960938 53.703125 392.035156 53.738281 392.109375 53.777344 C 392.097656 53.835938 392.082031 53.898438 392.066406 53.960938 C 389.839844 63.246094 389.839844 63.246094 387.617188 72.535156 C 387.59375 72.636719 387.570312 72.738281 387.542969 72.84375 C 387.273438 73.972656 387.003906 75.101562 386.734375 76.230469 C 386.269531 78.175781 385.804688 80.121094 385.339844 82.066406 C 385.289062 82.277344 385.238281 82.488281 385.1875 82.695312 C 383.957031 87.851562 382.722656 93.003906 381.488281 98.15625 C 381.027344 100.082031 380.570312 102.003906 380.109375 103.925781 C 380.058594 104.128906 380.058594 104.128906 380.011719 104.332031 C 379.785156 105.277344 379.558594 106.222656 379.332031 107.167969 C 379.074219 108.246094 378.816406 109.324219 378.558594 110.40625 C 378.527344 110.539062 378.496094 110.671875 378.460938 110.8125 C 378 112.738281 377.539062 114.667969 377.078125 116.59375 C 375.851562 121.714844 374.625 126.832031 373.402344 131.953125 C 373.351562 132.160156 373.300781 132.371094 373.253906 132.578125 C 372.789062 134.523438 372.324219 136.464844 371.859375 138.40625 C 371.589844 139.535156 371.320312 140.667969 371.046875 141.796875 C 371.023438 141.902344 371 142.003906 370.972656 142.109375 C 370.023438 146.089844 369.070312 150.070312 368.113281 154.050781 C 367.183594 157.933594 366.253906 161.8125 365.328125 165.695312 C 365.277344 165.898438 365.230469 166.101562 365.179688 166.304688 C 365.082031 166.714844 364.984375 167.128906 364.886719 167.539062 C 364.859375 167.640625 364.835938 167.746094 364.8125 167.851562 C 364.761719 168.058594 364.710938 168.269531 364.660156 168.476562 C 364.007812 171.207031 363.355469 173.933594 362.703125 176.664062 C 362.636719 176.9375 362.570312 177.214844 362.503906 177.488281 C 361.734375 180.714844 360.960938 183.941406 360.1875 187.167969 C 360.121094 187.453125 360.050781 187.734375 359.984375 188.015625 C 359.917969 188.296875 359.847656 188.582031 359.78125 188.863281 C 359.644531 189.425781 359.511719 189.992188 359.375 190.554688 C 359.324219 190.765625 359.324219 190.765625 359.273438 190.980469 C 358.289062 195.078125 357.308594 199.175781 356.332031 203.277344 C 355.324219 207.519531 354.308594 211.761719 353.292969 216 C 353.257812 216.140625 353.222656 216.28125 353.191406 216.425781 C 353.089844 216.847656 352.984375 217.273438 352.882812 217.699219 C 352.78125 218.125 352.679688 218.546875 352.578125 218.972656 C 352.511719 219.257812 352.441406 219.539062 352.375 219.824219 C 351.617188 222.984375 350.859375 226.144531 350.105469 229.304688 C 350.039062 229.574219 349.976562 229.84375 349.910156 230.117188 C 349.652344 231.195312 349.394531 232.273438 349.136719 233.351562 C 348.519531 235.921875 347.90625 238.492188 347.292969 241.058594 C 347.066406 242.003906 346.839844 242.945312 346.613281 243.890625 C 346 246.453125 345.386719 249.011719 344.773438 251.574219 C 344.453125 252.925781 344.128906 254.273438 343.804688 255.625 C 343.757812 255.832031 343.757812 255.832031 343.707031 256.039062 C 342.65625 260.433594 341.605469 264.828125 340.554688 269.222656 C 340.480469 269.222656 340.410156 269.222656 340.332031 269.222656 C 340.3125 269.441406 340.3125 269.441406 340.289062 269.664062 C 340.234375 270.175781 340.132812 270.664062 340.011719 271.160156 C 339.992188 271.25 339.96875 271.335938 339.949219 271.429688 C 339.878906 271.71875 339.808594 272.007812 339.738281 272.296875 C 339.6875 272.503906 339.636719 272.714844 339.585938 272.921875 C 339.457031 273.464844 339.324219 274.011719 339.191406 274.558594 C 339.0625 275.09375 338.933594 275.625 338.804688 276.15625 C 338.46875 277.546875 338.132812 278.9375 337.796875 280.324219 C 337.230469 282.660156 336.664062 284.992188 336.117188 287.332031 C 335.65625 289.300781 335.183594 291.265625 334.714844 293.230469 C 334.582031 293.785156 334.449219 294.339844 334.316406 294.898438 C 333.757812 297.226562 333.199219 299.554688 332.636719 301.878906 C 332.378906 302.941406 332.121094 304.007812 331.867188 305.070312 C 331.832031 305.226562 331.832031 305.226562 331.792969 305.382812 C 331.394531 307.054688 331 308.722656 330.605469 310.394531 C 329.710938 314.183594 328.800781 317.96875 327.882812 321.75 C 327.765625 322.238281 327.644531 322.722656 327.527344 323.210938 C 327.476562 323.425781 327.421875 323.644531 327.371094 323.859375 C 327.347656 323.949219 327.328125 324.039062 327.304688 324.132812 C 327.285156 324.207031 327.265625 324.285156 327.25 324.359375 C 327.101562 324.984375 326.96875 325.605469 326.855469 326.238281 C 326.652344 327.359375 326.382812 328.464844 326.117188 329.574219 C 326.058594 329.804688 326.003906 330.035156 325.949219 330.269531 C 325.800781 330.894531 325.648438 331.523438 325.496094 332.152344 C 325.335938 332.824219 325.175781 333.5 325.015625 334.171875 C 324.707031 335.457031 324.398438 336.746094 324.089844 338.03125 C 323.851562 339.023438 323.613281 340.015625 323.375 341.007812 C 323.308594 341.285156 323.242188 341.5625 323.175781 341.839844 C 323.144531 341.976562 323.113281 342.113281 323.078125 342.253906 C 322.542969 344.488281 322.007812 346.726562 321.46875 348.960938 C 320.308594 353.800781 319.152344 358.636719 317.996094 363.476562 C 317.664062 364.867188 317.332031 366.253906 316.996094 367.644531 C 316.773438 368.589844 316.546875 369.53125 316.320312 370.472656 C 316.167969 371.113281 316.015625 371.753906 315.859375 372.394531 C 315.789062 372.691406 315.71875 372.988281 315.648438 373.28125 C 315.558594 373.65625 315.46875 374.03125 315.378906 374.402344 C 315.1875 375.210938 314.996094 376.015625 314.816406 376.828125 C 314.738281 377.179688 314.65625 377.535156 314.578125 377.886719 C 314.523438 378.128906 314.472656 378.375 314.421875 378.617188 C 314.386719 378.761719 314.355469 378.910156 314.320312 379.054688 C 314.292969 379.183594 314.265625 379.308594 314.238281 379.441406 C 314.035156 379.980469 313.65625 380.316406 313.144531 380.574219 C 313.070312 380.613281 312.992188 380.65625 312.914062 380.695312 C 312.832031 380.734375 312.75 380.777344 312.667969 380.820312 C 312.535156 380.886719 312.535156 380.886719 312.402344 380.953125 C 312.121094 381.097656 311.839844 381.238281 311.554688 381.382812 C 311.359375 381.480469 311.160156 381.582031 310.964844 381.683594 C 310.382812 381.976562 309.804688 382.265625 309.222656 382.554688 C 309.144531 382.59375 309.066406 382.632812 308.984375 382.675781 C 305.816406 384.253906 302.582031 385.675781 299.285156 386.957031 C 299.027344 387.054688 298.773438 387.15625 298.519531 387.257812 C 294.285156 388.929688 289.945312 390.347656 285.554688 391.554688 C 285.460938 391.582031 285.367188 391.609375 285.269531 391.632812 C 280.9375 392.832031 276.558594 393.761719 272.128906 394.515625 C 271.90625 394.554688 271.679688 394.59375 271.457031 394.632812 C 266.027344 395.585938 260.300781 396.277344 254.777344 396.109375 C 254.917969 395.304688 255.082031 394.511719 255.273438 393.71875 C 255.296875 393.609375 255.324219 393.496094 255.351562 393.382812 C 255.441406 393.015625 255.527344 392.652344 255.617188 392.285156 C 255.679688 392.023438 255.742188 391.761719 255.804688 391.5 C 255.957031 390.871094 256.105469 390.238281 256.257812 389.609375 C 256.4375 388.871094 256.613281 388.132812 256.789062 387.394531 C 256.878906 387.019531 256.96875 386.644531 257.058594 386.269531 C 257.078125 386.195312 257.09375 386.121094 257.113281 386.042969 C 257.242188 385.515625 257.367188 384.988281 257.492188 384.464844 C 257.914062 382.710938 258.332031 380.960938 258.75 379.210938 C 258.777344 379.109375 258.800781 379.007812 258.824219 378.902344 C 258.945312 378.394531 259.066406 377.886719 259.1875 377.378906 C 259.433594 376.351562 259.679688 375.324219 259.925781 374.296875 C 259.964844 374.140625 259.964844 374.140625 260 373.984375 C 260.691406 371.101562 261.378906 368.222656 262.070312 365.339844 C 262.101562 365.203125 262.132812 365.066406 262.167969 364.929688 C 262.699219 362.699219 263.234375 360.472656 263.765625 358.246094 C 264.679688 354.429688 265.59375 350.609375 266.507812 346.792969 C 266.683594 346.0625 266.859375 345.332031 267.03125 344.601562 C 267.300781 343.484375 267.566406 342.371094 267.832031 341.257812 C 267.953125 340.761719 268.070312 340.265625 268.1875 339.773438 C 269.277344 335.21875 270.359375 330.664062 271.445312 326.109375 C 225.539062 326.074219 179.632812 326.039062 132.332031 326 C 131.304688 324.203125 131.304688 324.203125 130.859375 323.316406 C 130.808594 323.214844 130.761719 323.113281 130.707031 323.011719 C 130.546875 322.6875 130.382812 322.363281 130.222656 322.042969 C 130.167969 321.929688 130.109375 321.816406 130.050781 321.703125 C 129.046875 319.683594 128.097656 317.648438 127.214844 315.574219 C 127.109375 315.332031 127.007812 315.089844 126.902344 314.847656 C 122.839844 305.425781 119.910156 295.441406 117.480469 280.300781 C 117.4375 279.945312 117.386719 279.589844 117.339844 279.238281 C 117.210938 278.285156 117.113281 277.335938 117.023438 276.382812 C 116.992188 276.089844 116.964844 275.796875 116.933594 275.503906 C 116.847656 274.613281 116.757812 273.722656 116.691406 272.832031 C 116.671875 272.628906 116.648438 272.429688 116.613281 272.230469 C 116.5625 271.882812 116.5625 271.667969 116.667969 271.332031 C 117.039062 270.910156 117.453125 270.585938 117.90625 270.257812 C 118.101562 270.121094 118.289062 269.976562 118.472656 269.832031 C 118.710938 269.644531 118.949219 269.460938 119.1875 269.28125 C 120.140625 268.554688 121.078125 267.808594 122.007812 267.046875 C 122.539062 266.613281 123.074219 266.1875 123.617188 265.769531 C 124.136719 265.375 124.648438 264.972656 125.160156 264.5625 C 126.015625 263.875 126.882812 263.195312 127.746094 262.515625 C 128.484375 261.941406 129.214844 261.363281 129.945312 260.777344 C 130.800781 260.09375 131.664062 259.414062 132.527344 258.738281 C 133.261719 258.164062 133.992188 257.585938 134.722656 257 C 135.578125 256.3125 136.441406 255.636719 137.304688 254.960938 C 138.039062 254.382812 138.769531 253.804688 139.5 253.222656 C 140.355469 252.535156 141.21875 251.859375 142.082031 251.183594 C 142.816406 250.605469 143.550781 250.027344 144.277344 249.445312 C 145.132812 248.757812 145.996094 248.082031 146.859375 247.40625 C 147.59375 246.828125 148.328125 246.25 149.054688 245.667969 C 149.910156 244.980469 150.773438 244.304688 151.636719 243.628906 C 152.371094 243.050781 153.105469 242.472656 153.832031 241.890625 C 154.6875 241.203125 155.550781 240.527344 156.414062 239.847656 C 157.148438 239.273438 157.882812 238.695312 158.609375 238.109375 C 159.527344 237.375 160.453125 236.648438 161.378906 235.925781 C 162.078125 235.378906 162.765625 234.828125 163.453125 234.269531 C 164.101562 233.742188 164.757812 233.226562 165.421875 232.714844 C 166.371094 231.992188 167.304688 231.25 168.230469 230.492188 C 168.878906 229.964844 169.535156 229.445312 170.199219 228.9375 C 171.148438 228.214844 172.082031 227.46875 173.007812 226.714844 C 173.65625 226.1875 174.3125 225.667969 174.976562 225.160156 C 175.925781 224.4375 176.859375 223.691406 177.785156 222.9375 C 178.316406 222.503906 178.851562 222.074219 179.394531 221.660156 C 179.914062 221.261719 180.429688 220.859375 180.9375 220.453125 C 181.796875 219.761719 182.660156 219.082031 183.527344 218.40625 C 184.261719 217.828125 184.992188 217.25 185.722656 216.667969 C 186.578125 215.980469 187.441406 215.304688 188.304688 214.628906 C 189.039062 214.050781 189.769531 213.472656 190.5 212.890625 C 191.355469 212.203125 192.21875 211.527344 193.082031 210.847656 C 193.816406 210.273438 194.550781 209.695312 195.277344 209.109375 C 196.132812 208.425781 196.996094 207.746094 197.859375 207.070312 C 198.59375 206.496094 199.328125 205.917969 200.054688 205.332031 C 200.910156 204.648438 201.773438 203.96875 202.636719 203.292969 C 203.371094 202.71875 204.105469 202.140625 204.832031 201.554688 C 205.6875 200.871094 206.550781 200.191406 207.414062 199.515625 C 208.148438 198.941406 208.882812 198.363281 209.609375 197.777344 C 210.464844 197.09375 211.328125 196.414062 212.191406 195.738281 C 212.925781 195.164062 213.660156 194.585938 214.390625 194 C 215.304688 193.265625 216.230469 192.539062 217.160156 191.8125 C 217.855469 191.269531 218.542969 190.71875 219.230469 190.160156 C 219.878906 189.628906 220.535156 189.113281 221.199219 188.605469 C 222.148438 187.878906 223.082031 187.136719 224.007812 186.382812 C 224.65625 185.851562 225.3125 185.335938 225.976562 184.828125 C 226.925781 184.101562 227.859375 183.359375 228.785156 182.605469 C 229.433594 182.074219 230.089844 181.558594 230.753906 181.050781 C 231.703125 180.324219 232.636719 179.582031 233.5625 178.828125 C 234.210938 178.296875 234.867188 177.78125 235.535156 177.273438 C 236.480469 176.546875 237.414062 175.804688 238.339844 175.046875 C 238.871094 174.613281 239.40625 174.1875 239.953125 173.769531 C 240.472656 173.375 240.984375 172.972656 241.492188 172.5625 C 242.351562 171.875 243.214844 171.195312 244.082031 170.515625 C 244.816406 169.941406 245.550781 169.363281 246.277344 168.777344 C 247.132812 168.09375 247.996094 167.414062 248.859375 166.738281 C 249.59375 166.164062 250.328125 165.585938 251.054688 165 C 251.910156 164.3125 252.773438 163.636719 253.636719 162.960938 C 254.371094 162.382812 255.105469 161.804688 255.832031 161.222656 C 256.6875 160.535156 257.550781 159.859375 258.414062 159.183594 C 259.148438 158.605469 259.882812 158.027344 260.609375 157.445312 C 261.464844 156.757812 262.328125 156.082031 263.191406 155.40625 C 263.925781 154.828125 264.660156 154.25 265.390625 153.667969 C 266.246094 152.980469 267.105469 152.304688 267.96875 151.628906 C 268.703125 151.050781 269.4375 150.472656 270.167969 149.890625 C 271.023438 149.203125 271.882812 148.527344 272.746094 147.847656 C 273.484375 147.273438 274.214844 146.695312 274.945312 146.109375 C 275.863281 145.375 276.785156 144.648438 277.714844 143.925781 C 278.410156 143.378906 279.101562 142.828125 279.785156 142.269531 C 280.433594 141.742188 281.089844 141.226562 281.753906 140.714844 C 282.703125 139.992188 283.636719 139.25 284.5625 138.492188 C 285.210938 137.964844 285.867188 137.449219 286.53125 136.941406 C 286.921875 136.640625 287.3125 136.335938 287.703125 136.027344 C 289.066406 134.953125 289.066406 134.953125 289.648438 134.570312 C 290.011719 134.324219 290.363281 134.058594 290.707031 133.785156 C 290.773438 133.730469 290.839844 133.679688 290.910156 133.625 C 291.503906 133.15625 292.089844 132.675781 292.679688 132.195312 C 293.25 131.730469 293.835938 131.277344 294.421875 130.828125 C 295.371094 130.101562 296.304688 129.359375 297.230469 128.605469 C 297.878906 128.074219 298.535156 127.558594 299.199219 127.050781 C 300.148438 126.324219 301.082031 125.582031 302.007812 124.828125 C 302.65625 124.296875 303.3125 123.78125 303.976562 123.273438 C 304.925781 122.546875 305.859375 121.804688 306.785156 121.046875 C 307.433594 120.519531 308.089844 120.003906 308.753906 119.496094 C 309.703125 118.769531 310.636719 118.027344 311.5625 117.269531 C 312.09375 116.835938 312.628906 116.410156 313.171875 115.992188 C 313.691406 115.597656 314.207031 115.195312 314.714844 114.785156 C 315.574219 114.097656 316.4375 113.417969 317.304688 112.738281 C 318.039062 112.164062 318.769531 111.585938 319.5 111 C 320.226562 110.414062 320.960938 109.835938 321.695312 109.261719 C 322.019531 109.007812 322.34375 108.753906 322.667969 108.5 C 323.054688 108.195312 323.441406 107.890625 323.828125 107.585938 C 324.5 107.0625 325.167969 106.53125 325.832031 106 C 326.6875 105.3125 327.550781 104.636719 328.414062 103.960938 C 329.148438 103.382812 329.882812 102.804688 330.609375 102.222656 C 331.152344 101.789062 331.695312 101.355469 332.242188 100.921875 C 332.304688 100.875 332.371094 100.824219 332.433594 100.773438 C 332.964844 100.355469 333.507812 99.957031 334.054688 99.5625 C 334.339844 99.34375 334.339844 99.34375 334.550781 99.058594 C 334.8125 98.734375 335.089844 98.519531 335.421875 98.269531 C 335.554688 98.171875 335.683594 98.074219 335.8125 97.976562 C 335.878906 97.925781 335.945312 97.875 336.015625 97.824219 C 336.363281 97.558594 336.707031 97.28125 337.046875 97.007812 C 337.589844 96.574219 338.128906 96.140625 338.671875 95.714844 C 338.738281 95.664062 338.800781 95.613281 338.867188 95.5625 C 339.1875 95.3125 339.503906 95.0625 339.824219 94.8125 C 340.519531 94.269531 341.210938 93.71875 341.894531 93.160156 C 342.542969 92.628906 343.203125 92.113281 343.867188 91.605469 C 344.816406 90.878906 345.75 90.136719 346.671875 89.382812 C 347.324219 88.851562 347.980469 88.335938 348.644531 87.828125 C 349.59375 87.101562 350.527344 86.359375 351.453125 85.605469 C 352.101562 85.074219 352.757812 84.558594 353.421875 84.050781 C 354.371094 83.324219 355.304688 82.582031 356.230469 81.828125 C 356.761719 81.394531 357.292969 80.964844 357.839844 80.546875 C 358.359375 80.152344 358.871094 79.75 359.382812 79.339844 C 360.238281 78.652344 361.105469 77.972656 361.96875 77.292969 C 362.703125 76.71875 363.4375 76.140625 364.167969 75.554688 C 365.023438 74.871094 365.882812 74.191406 366.746094 73.515625 C 367.484375 72.941406 368.214844 72.363281 368.945312 71.777344 C 369.800781 71.09375 370.664062 70.414062 371.527344 69.738281 C 372.261719 69.164062 372.992188 68.585938 373.722656 68 C 374.578125 67.3125 375.441406 66.636719 376.304688 65.960938 C 377.039062 65.382812 377.769531 64.804688 378.5 64.222656 C 379.355469 63.535156 380.21875 62.859375 381.082031 62.183594 C 381.816406 61.605469 382.550781 61.027344 383.277344 60.445312 C 384.132812 59.757812 384.996094 59.082031 385.859375 58.40625 C 386.59375 57.828125 387.328125 57.25 388.054688 56.667969 C 389.320312 55.652344 390.601562 54.652344 391.890625 53.667969 Z M 302.667969 195.222656 C 302.574219 195.296875 302.476562 195.371094 302.382812 195.445312 C 302.320312 195.496094 302.257812 195.542969 302.191406 195.59375 C 302.054688 195.703125 301.914062 195.816406 301.773438 195.925781 C 301.421875 196.199219 301.074219 196.472656 300.722656 196.746094 C 300.03125 197.289062 299.34375 197.839844 298.660156 198.394531 C 298.011719 198.925781 297.355469 199.441406 296.6875 199.949219 C 295.738281 200.675781 294.808594 201.417969 293.882812 202.171875 C 293.351562 202.605469 292.816406 203.035156 292.269531 203.453125 C 291.75 203.847656 291.238281 204.25 290.730469 204.660156 C 289.871094 205.347656 289.007812 206.027344 288.140625 206.707031 C 287.40625 207.28125 286.671875 207.859375 285.945312 208.445312 C 285.089844 209.128906 284.226562 209.808594 283.363281 210.484375 C 282.628906 211.058594 281.894531 211.636719 281.167969 212.222656 C 280.3125 212.90625 279.449219 213.585938 278.585938 214.261719 C 277.851562 214.835938 277.117188 215.414062 276.390625 216 C 275.535156 216.6875 274.671875 217.363281 273.808594 218.039062 C 273.074219 218.617188 272.339844 219.195312 271.609375 219.777344 C 270.753906 220.464844 269.894531 221.140625 269.03125 221.816406 C 268.296875 222.394531 267.5625 222.972656 266.832031 223.554688 C 265.976562 224.242188 265.117188 224.917969 264.253906 225.59375 C 263.515625 226.171875 262.785156 226.75 262.054688 227.332031 C 261.136719 228.070312 260.214844 228.796875 259.285156 229.519531 C 258.589844 230.0625 257.898438 230.613281 257.214844 231.171875 C 256.566406 231.703125 255.910156 232.21875 255.246094 232.726562 C 254.296875 233.453125 253.363281 234.195312 252.4375 234.953125 C 251.789062 235.480469 251.132812 235.996094 250.464844 236.503906 C 249.519531 237.230469 248.585938 237.972656 247.660156 238.730469 C 247.011719 239.257812 246.355469 239.773438 245.6875 240.285156 C 244.738281 241.007812 243.808594 241.75 242.882812 242.507812 C 242.351562 242.941406 241.816406 243.367188 241.269531 243.785156 C 240.75 244.179688 240.238281 244.585938 239.730469 244.992188 C 238.871094 245.683594 238.007812 246.359375 237.140625 247.039062 C 236.40625 247.617188 235.671875 248.195312 234.945312 248.777344 C 234.089844 249.464844 233.226562 250.140625 232.363281 250.816406 C 231.628906 251.394531 230.894531 251.972656 230.167969 252.554688 C 229.3125 253.242188 228.449219 253.917969 227.585938 254.59375 C 226.851562 255.171875 226.117188 255.75 225.390625 256.332031 C 224.535156 257.019531 223.671875 257.695312 222.808594 258.371094 C 222.074219 258.949219 221.339844 259.527344 220.609375 260.109375 C 219.753906 260.796875 218.894531 261.472656 218.03125 262.152344 C 217.296875 262.726562 216.5625 263.304688 215.832031 263.890625 C 214.976562 264.574219 214.117188 265.253906 213.253906 265.929688 C 212.433594 266.570312 211.621094 267.214844 210.808594 267.863281 C 210.339844 268.242188 209.863281 268.613281 209.382812 268.976562 C 209.328125 269.019531 209.277344 269.066406 209.222656 269.109375 C 209.222656 269.148438 209.222656 269.183594 209.222656 269.222656 C 234.265625 269.222656 259.308594 269.222656 285.109375 269.222656 C 285.589844 267.5 285.589844 267.5 286.023438 265.769531 C 286.042969 265.683594 286.0625 265.601562 286.082031 265.511719 C 286.105469 265.425781 286.125 265.339844 286.144531 265.246094 C 286.191406 265.058594 286.238281 264.867188 286.28125 264.675781 C 286.378906 264.265625 286.476562 263.855469 286.574219 263.445312 C 286.734375 262.78125 286.890625 262.117188 287.050781 261.449219 C 287.222656 260.730469 287.394531 260.011719 287.566406 259.292969 C 288 257.460938 288.4375 255.625 288.878906 253.792969 C 288.910156 253.660156 288.941406 253.523438 288.976562 253.386719 C 289.140625 252.699219 289.304688 252.015625 289.46875 251.328125 C 289.800781 249.941406 290.132812 248.550781 290.464844 247.164062 C 290.496094 247.027344 290.53125 246.890625 290.5625 246.75 C 291.191406 244.132812 291.816406 241.511719 292.445312 238.890625 C 293.402344 234.878906 294.363281 230.867188 295.324219 226.855469 C 296.265625 222.925781 297.203125 218.996094 298.144531 215.066406 C 298.742188 212.558594 299.34375 210.054688 299.941406 207.550781 C 300.050781 207.101562 300.15625 206.652344 300.265625 206.203125 C 300.335938 205.90625 300.40625 205.605469 300.476562 205.308594 C 300.496094 205.234375 300.511719 205.160156 300.53125 205.085938 C 300.757812 204.136719 300.984375 203.191406 301.210938 202.242188 C 301.34375 201.699219 301.472656 201.152344 301.601562 200.609375 C 301.664062 200.355469 301.722656 200.105469 301.785156 199.851562 C 301.8125 199.734375 301.839844 199.613281 301.871094 199.492188 C 301.914062 199.316406 301.914062 199.316406 301.953125 199.140625 C 302.007812 198.917969 302.0625 198.695312 302.113281 198.472656 C 302.230469 197.976562 302.351562 197.480469 302.476562 196.984375 C 302.496094 196.898438 302.519531 196.8125 302.539062 196.722656 C 302.582031 196.5625 302.621094 196.402344 302.660156 196.242188 C 302.753906 195.867188 302.808594 195.585938 302.667969 195.222656 Z M 302.667969 195.222656 "/>
</g>
</svg>
