<?xml version="1.0" encoding="UTF-8"?>
<svg xmlns="http://www.w3.org/2000/svg" xmlns:xlink="http://www.w3.org/1999/xlink" width="64px" height="64px" viewBox="0 0 64 64" version="1.1">
<g id="surface1">
<path style=" stroke:none;fill-rule:nonzero;fill:rgb(74.901962%,90.588236%,97.254902%);fill-opacity:1;" d="M 50.160156 6.871094 C 50.171875 6.875 50.179688 6.878906 50.191406 6.882812 C 50.1875 6.890625 50.1875 6.898438 50.183594 6.90625 C 49.898438 8.09375 49.898438 8.09375 49.613281 9.285156 C 49.613281 9.296875 49.609375 9.308594 49.605469 9.324219 C 49.570312 9.46875 49.535156 9.613281 49.503906 9.757812 C 49.441406 10.007812 49.382812 10.253906 49.324219 10.503906 C 49.316406 10.53125 49.308594 10.558594 49.304688 10.585938 C 49.148438 11.246094 48.988281 11.90625 48.832031 12.5625 C 48.773438 12.808594 48.714844 13.054688 48.652344 13.300781 C 48.648438 13.328125 48.648438 13.328125 48.640625 13.355469 C 48.613281 13.476562 48.582031 13.597656 48.554688 13.71875 C 48.523438 13.855469 48.488281 13.992188 48.457031 14.132812 C 48.453125 14.148438 48.449219 14.164062 48.441406 14.183594 C 48.382812 14.429688 48.324219 14.675781 48.265625 14.925781 C 48.109375 15.578125 47.953125 16.234375 47.796875 16.890625 C 47.789062 16.917969 47.78125 16.945312 47.777344 16.96875 C 47.71875 17.21875 47.65625 17.46875 47.597656 17.714844 C 47.5625 17.859375 47.527344 18.003906 47.492188 18.148438 C 47.492188 18.164062 47.488281 18.175781 47.484375 18.191406 C 47.363281 18.699219 47.242188 19.210938 47.117188 19.71875 C 47 20.214844 46.878906 20.710938 46.761719 21.210938 C 46.753906 21.234375 46.75 21.261719 46.742188 21.285156 C 46.730469 21.339844 46.71875 21.390625 46.707031 21.445312 C 46.703125 21.457031 46.699219 21.472656 46.695312 21.484375 C 46.691406 21.511719 46.683594 21.539062 46.675781 21.566406 C 46.59375 21.914062 46.507812 22.261719 46.425781 22.613281 C 46.417969 22.648438 46.410156 22.683594 46.402344 22.71875 C 46.300781 23.132812 46.203125 23.542969 46.105469 23.957031 C 46.09375 23.992188 46.085938 24.03125 46.078125 24.066406 C 46.070312 24.101562 46.058594 24.136719 46.050781 24.175781 C 46.035156 24.246094 46.015625 24.320312 46 24.390625 C 45.992188 24.417969 45.992188 24.417969 45.988281 24.445312 C 45.859375 24.96875 45.734375 25.496094 45.609375 26.019531 C 45.480469 26.5625 45.351562 27.105469 45.222656 27.648438 C 45.21875 27.664062 45.210938 27.683594 45.207031 27.703125 C 45.195312 27.757812 45.183594 27.8125 45.167969 27.867188 C 45.15625 27.921875 45.144531 27.972656 45.128906 28.027344 C 45.121094 28.066406 45.113281 28.101562 45.105469 28.136719 C 45.007812 28.542969 44.910156 28.945312 44.8125 29.351562 C 44.804688 29.386719 44.796875 29.421875 44.789062 29.453125 C 44.753906 29.59375 44.722656 29.730469 44.691406 29.867188 C 44.609375 30.199219 44.53125 30.527344 44.453125 30.855469 C 44.425781 30.976562 44.394531 31.097656 44.367188 31.21875 C 44.289062 31.546875 44.210938 31.875 44.132812 32.203125 C 44.101562 32.320312 44.074219 32.441406 44.046875 32.558594 C 44.019531 32.660156 43.996094 32.761719 43.972656 32.863281 C 43.84375 33.394531 43.71875 33.929688 43.589844 34.460938 C 47.527344 34.460938 51.464844 34.460938 55.523438 34.460938 C 55.488281 35.195312 55.488281 35.195312 55.46875 35.445312 C 55.46875 35.460938 55.46875 35.476562 55.464844 35.492188 C 55.363281 36.765625 55.15625 38.027344 54.855469 39.265625 C 54.851562 39.28125 54.847656 39.292969 54.847656 39.304688 C 54.535156 40.585938 54.101562 41.835938 52.757812 44.71875 C 52.726562 44.777344 52.695312 44.835938 52.664062 44.894531 C 52.566406 45.074219 52.46875 45.25 52.363281 45.425781 C 52.335938 45.46875 52.308594 45.515625 52.28125 45.5625 C 52.15625 45.777344 52.027344 45.984375 51.898438 46.195312 C 51.890625 46.203125 51.882812 46.214844 51.878906 46.226562 C 51.613281 46.640625 51.335938 47.046875 51.042969 47.445312 C 51.03125 47.460938 51.03125 47.460938 51.019531 47.476562 C 50.902344 47.640625 50.78125 47.800781 50.660156 47.957031 C 50.652344 47.96875 50.644531 47.976562 50.636719 47.988281 C 50.523438 48.132812 50.410156 48.277344 50.296875 48.414062 C 50.277344 48.4375 50.257812 48.460938 50.242188 48.484375 C 50.179688 48.5625 50.113281 48.636719 50.050781 48.714844 C 50.007812 48.761719 49.964844 48.8125 49.925781 48.863281 C 49.871094 48.929688 49.8125 48.996094 49.753906 49.058594 C 49.71875 49.097656 49.683594 49.140625 49.648438 49.179688 C 49.605469 49.226562 49.566406 49.269531 49.523438 49.316406 C 49.496094 49.347656 49.472656 49.375 49.445312 49.40625 C 49.382812 49.480469 49.316406 49.550781 49.246094 49.625 C 49.230469 49.640625 49.214844 49.660156 49.199219 49.675781 C 49.089844 49.792969 48.980469 49.90625 48.867188 50.019531 C 48.816406 50.070312 48.769531 50.121094 48.722656 50.175781 C 48.6875 50.214844 48.648438 50.253906 48.613281 50.289062 C 48.605469 50.296875 48.597656 50.304688 48.59375 50.3125 C 48.554688 50.351562 48.511719 50.386719 48.472656 50.421875 C 48.402344 50.480469 48.339844 50.546875 48.277344 50.609375 C 48.207031 50.683594 48.132812 50.753906 48.054688 50.820312 C 48.003906 50.863281 47.957031 50.910156 47.90625 50.957031 C 47.839844 51.023438 47.769531 51.085938 47.699219 51.148438 C 47.667969 51.175781 47.636719 51.207031 47.605469 51.234375 C 47.554688 51.277344 47.503906 51.320312 47.453125 51.363281 C 47.398438 51.40625 47.347656 51.453125 47.296875 51.5 C 47.234375 51.554688 47.167969 51.609375 47.101562 51.664062 C 47.058594 51.699219 47.015625 51.738281 46.972656 51.773438 C 46.890625 51.84375 46.808594 51.90625 46.726562 51.972656 C 46.683594 52.003906 46.644531 52.039062 46.601562 52.070312 C 46.484375 52.164062 46.367188 52.253906 46.246094 52.34375 C 46.191406 52.386719 46.140625 52.425781 46.085938 52.46875 C 45.984375 52.546875 45.878906 52.621094 45.773438 52.699219 C 45.738281 52.722656 45.707031 52.742188 45.675781 52.765625 C 45.519531 52.882812 45.355469 52.992188 45.191406 53.101562 C 45.136719 53.136719 45.085938 53.171875 45.035156 53.207031 C 44.851562 53.328125 44.667969 53.449219 44.480469 53.566406 C 44.453125 53.582031 44.429688 53.597656 44.402344 53.613281 C 44.171875 53.757812 43.941406 53.894531 43.703125 54.03125 C 43.691406 54.039062 43.675781 54.046875 43.664062 54.054688 C 43.328125 54.246094 42.992188 54.425781 42.652344 54.597656 C 42.640625 54.605469 42.632812 54.609375 42.621094 54.617188 C 42.296875 54.78125 41.972656 54.9375 41.640625 55.085938 C 41.613281 55.097656 41.585938 55.109375 41.558594 55.121094 C 40.414062 55.632812 39.222656 56.046875 37.632812 56.460938 C 37.621094 56.464844 37.605469 56.46875 37.59375 56.472656 C 36.199219 56.8125 34.78125 57.011719 33.351562 57.101562 C 33.335938 57.101562 33.324219 57.105469 33.308594 57.105469 C 32.433594 57.160156 31.539062 57.15625 30.664062 57.101562 C 30.648438 57.101562 30.632812 57.101562 30.617188 57.097656 C 29.070312 57.007812 27.53125 56.769531 24.421875 55.890625 C 24.390625 55.878906 24.355469 55.867188 24.324219 55.855469 C 23.605469 55.613281 22.90625 55.328125 22.214844 55.011719 C 22.191406 55 22.191406 55 22.167969 54.992188 C 21.914062 54.875 21.660156 54.75 21.410156 54.625 C 21.394531 54.617188 21.378906 54.609375 21.363281 54.601562 C 21.164062 54.503906 20.964844 54.398438 20.769531 54.289062 C 20.738281 54.273438 20.710938 54.257812 20.683594 54.242188 C 20.457031 54.117188 20.234375 53.992188 20.015625 53.859375 C 19.96875 53.832031 19.921875 53.804688 19.875 53.777344 C 19.847656 53.757812 19.816406 53.742188 19.785156 53.722656 C 19.765625 53.710938 19.765625 53.710938 19.746094 53.699219 C 19.5 53.550781 19.261719 53.394531 19.019531 53.234375 C 18.980469 53.210938 18.941406 53.183594 18.898438 53.15625 C 18.765625 53.070312 18.632812 52.976562 18.503906 52.882812 C 18.453125 52.84375 18.398438 52.804688 18.34375 52.765625 C 18.117188 52.609375 17.898438 52.445312 17.683594 52.277344 C 17.65625 52.257812 17.625 52.234375 17.597656 52.214844 C 17.492188 52.132812 17.390625 52.050781 17.289062 51.96875 C 17.25 51.933594 17.207031 51.902344 17.164062 51.867188 C 17.101562 51.816406 17.039062 51.765625 16.980469 51.714844 C 16.929688 51.671875 16.882812 51.632812 16.835938 51.59375 C 16.695312 51.480469 16.5625 51.363281 16.429688 51.242188 C 16.402344 51.214844 16.371094 51.191406 16.34375 51.164062 C 16.289062 51.117188 16.234375 51.066406 16.179688 51.015625 C 16.136719 50.976562 16.089844 50.9375 16.046875 50.898438 C 15.882812 50.75 15.71875 50.59375 15.5625 50.433594 C 15.515625 50.386719 15.46875 50.339844 15.414062 50.296875 C 15.359375 50.246094 15.304688 50.191406 15.253906 50.136719 C 15.160156 50.035156 15.0625 49.933594 14.964844 49.839844 C 14.90625 49.78125 14.855469 49.722656 14.800781 49.664062 C 14.757812 49.613281 14.710938 49.566406 14.664062 49.515625 C 14.582031 49.429688 14.5 49.339844 14.421875 49.25 C 14.410156 49.238281 14.410156 49.238281 14.398438 49.222656 C 14.320312 49.140625 14.246094 49.050781 14.171875 48.964844 C 14.152344 48.941406 14.128906 48.914062 14.109375 48.886719 C 14.070312 48.847656 14.035156 48.804688 14 48.765625 C 13.988281 48.746094 13.972656 48.730469 13.960938 48.714844 C 13.878906 48.625 13.804688 48.53125 13.726562 48.433594 C 13.679688 48.371094 13.628906 48.308594 13.578125 48.246094 C 13.488281 48.136719 13.40625 48.027344 13.324219 47.917969 C 13.296875 47.882812 13.269531 47.847656 13.242188 47.8125 C 13.144531 47.6875 13.050781 47.566406 12.964844 47.4375 C 12.9375 47.402344 12.910156 47.367188 12.886719 47.332031 C 12.625 46.976562 12.382812 46.609375 12.144531 46.238281 C 12.132812 46.21875 12.132812 46.21875 12.121094 46.199219 C 11.976562 45.96875 11.832031 45.730469 11.695312 45.492188 C 11.664062 45.445312 11.636719 45.398438 11.609375 45.347656 C 11.5 45.167969 11.398438 44.984375 11.300781 44.796875 C 11.261719 44.726562 11.226562 44.65625 11.1875 44.589844 C 10.988281 44.226562 10.808594 43.851562 10.636719 43.476562 C 10.621094 43.445312 10.609375 43.417969 10.59375 43.386719 C 10.429688 43.023438 10.273438 42.660156 10.125 42.289062 C 10.113281 42.257812 10.097656 42.222656 10.085938 42.1875 C 9.941406 41.832031 9.828125 41.464844 9.714844 41.09375 C 9.671875 40.949219 9.628906 40.800781 9.582031 40.652344 C 9.566406 40.601562 9.550781 40.550781 9.535156 40.5 C 9.53125 40.488281 9.527344 40.472656 9.523438 40.460938 C 9.496094 40.375 9.46875 40.285156 9.445312 40.199219 C 9.441406 40.1875 9.4375 40.175781 9.433594 40.164062 C 9.414062 40.105469 9.398438 40.046875 9.378906 39.988281 C 9.34375 39.871094 9.308594 39.757812 9.273438 39.640625 C 9.203125 39.421875 9.136719 39.207031 9.089844 38.984375 C 9.082031 38.957031 9.078125 38.933594 9.070312 38.90625 C 8.9375 38.3125 8.824219 37.710938 8.734375 37.105469 C 8.730469 37.09375 8.726562 37.078125 8.726562 37.066406 C 8.585938 36.117188 8.503906 35.15625 8.484375 34.195312 C 8.484375 34.183594 8.480469 34.171875 8.480469 34.15625 C 8.476562 33.882812 8.472656 33.609375 8.476562 33.335938 C 8.476562 33.324219 8.476562 33.3125 8.476562 33.300781 C 8.492188 31.886719 8.636719 30.472656 8.910156 29.082031 C 8.917969 29.042969 8.925781 29 8.933594 28.960938 C 9.070312 28.25 9.246094 27.542969 9.457031 26.851562 C 9.460938 26.835938 9.464844 26.824219 9.46875 26.808594 C 9.859375 25.535156 10.351562 24.300781 11.226562 22.554688 C 11.257812 22.5 11.285156 22.441406 11.316406 22.386719 C 11.390625 22.238281 11.472656 22.097656 11.558594 21.953125 C 11.59375 21.890625 11.632812 21.828125 11.667969 21.761719 C 11.808594 21.507812 11.964844 21.261719 12.121094 21.011719 C 12.148438 20.972656 12.175781 20.933594 12.199219 20.890625 C 12.308594 20.722656 12.417969 20.554688 12.535156 20.386719 C 12.558594 20.347656 12.585938 20.308594 12.613281 20.273438 C 12.730469 20.101562 12.847656 19.933594 12.96875 19.769531 C 12.976562 19.757812 12.988281 19.746094 12.996094 19.734375 C 13.113281 19.574219 13.234375 19.414062 13.355469 19.257812 C 13.367188 19.242188 13.367188 19.242188 13.378906 19.226562 C 13.488281 19.082031 13.601562 18.9375 13.71875 18.796875 C 13.738281 18.777344 13.753906 18.753906 13.773438 18.730469 C 13.835938 18.652344 13.902344 18.578125 13.964844 18.5 C 14.007812 18.453125 14.046875 18.402344 14.089844 18.351562 C 14.144531 18.285156 14.199219 18.21875 14.261719 18.15625 C 14.296875 18.117188 14.332031 18.074219 14.367188 18.035156 C 14.40625 17.988281 14.449219 17.941406 14.488281 17.898438 C 14.515625 17.867188 14.542969 17.839844 14.566406 17.808594 C 14.632812 17.734375 14.699219 17.664062 14.765625 17.589844 C 14.785156 17.574219 14.800781 17.554688 14.816406 17.539062 C 14.925781 17.421875 15.03125 17.308594 15.144531 17.195312 C 15.195312 17.144531 15.246094 17.09375 15.292969 17.039062 C 15.328125 17 15.363281 16.960938 15.402344 16.921875 C 15.410156 16.917969 15.414062 16.910156 15.421875 16.902344 C 15.460938 16.863281 15.5 16.828125 15.542969 16.792969 C 15.609375 16.734375 15.671875 16.667969 15.738281 16.605469 C 15.808594 16.53125 15.878906 16.460938 15.957031 16.394531 C 16.007812 16.351562 16.058594 16.300781 16.105469 16.257812 C 16.175781 16.191406 16.242188 16.128906 16.316406 16.066406 C 16.351562 16.035156 16.382812 16.003906 16.417969 15.972656 C 16.480469 15.914062 16.546875 15.859375 16.617188 15.804688 C 16.652344 15.773438 16.691406 15.742188 16.726562 15.707031 C 16.785156 15.652344 16.847656 15.601562 16.910156 15.550781 C 16.957031 15.515625 17 15.476562 17.042969 15.441406 C 17.121094 15.371094 17.203125 15.308594 17.285156 15.242188 C 17.328125 15.210938 17.371094 15.175781 17.414062 15.140625 C 17.539062 15.042969 17.664062 14.945312 17.792969 14.847656 C 17.800781 14.839844 17.8125 14.832031 17.820312 14.824219 C 17.949219 14.726562 18.078125 14.632812 18.210938 14.539062 C 18.253906 14.507812 18.292969 14.480469 18.332031 14.449219 C 18.523438 14.308594 18.71875 14.179688 18.917969 14.050781 C 18.988281 14.003906 19.054688 13.957031 19.125 13.910156 C 19.273438 13.8125 19.421875 13.71875 19.570312 13.625 C 19.589844 13.613281 19.589844 13.613281 19.613281 13.597656 C 20.058594 13.320312 20.515625 13.0625 20.976562 12.8125 C 20.988281 12.808594 21 12.800781 21.015625 12.796875 C 21.46875 12.554688 21.929688 12.324219 22.398438 12.117188 C 22.429688 12.101562 22.460938 12.089844 22.492188 12.074219 C 23.761719 11.515625 25.078125 11.066406 30.914062 10.097656 C 30.9375 10.097656 30.960938 10.097656 30.984375 10.097656 C 31.289062 10.082031 31.59375 10.082031 31.902344 10.082031 C 31.960938 10.082031 32.015625 10.082031 32.074219 10.082031 C 32.628906 10.078125 33.179688 10.09375 33.734375 10.136719 C 33.75 10.136719 33.765625 10.140625 33.78125 10.140625 C 35.320312 10.253906 36.847656 10.519531 39.074219 11.152344 C 39.109375 11.164062 39.144531 11.175781 39.175781 11.183594 C 40.371094 11.558594 41.519531 12.046875 42.792969 12.6875 C 42.863281 12.632812 42.933594 12.582031 43.003906 12.527344 C 43.019531 12.511719 43.039062 12.5 43.054688 12.484375 C 43.0625 12.480469 43.074219 12.472656 43.082031 12.464844 C 43.105469 12.445312 43.132812 12.425781 43.15625 12.40625 C 43.246094 12.335938 43.335938 12.265625 43.421875 12.195312 C 43.488281 12.140625 43.558594 12.085938 43.628906 12.03125 C 43.695312 11.980469 43.757812 11.929688 43.824219 11.875 C 43.933594 11.789062 44.046875 11.703125 44.15625 11.613281 C 44.25 11.539062 44.34375 11.46875 44.4375 11.390625 C 44.546875 11.304688 44.65625 11.21875 44.765625 11.132812 C 44.863281 11.058594 44.957031 10.984375 45.050781 10.910156 C 45.160156 10.820312 45.269531 10.734375 45.378906 10.648438 C 45.472656 10.574219 45.566406 10.5 45.660156 10.425781 C 45.769531 10.335938 45.878906 10.25 45.992188 10.164062 C 46.085938 10.089844 46.179688 10.015625 46.273438 9.941406 C 46.382812 9.851562 46.492188 9.765625 46.601562 9.679688 C 46.695312 9.605469 46.789062 9.53125 46.882812 9.457031 C 46.992188 9.371094 47.101562 9.285156 47.214844 9.195312 C 47.308594 9.121094 47.402344 9.050781 47.496094 8.972656 C 47.605469 8.886719 47.714844 8.800781 47.824219 8.714844 C 47.917969 8.640625 48.011719 8.566406 48.105469 8.492188 C 48.222656 8.398438 48.34375 8.304688 48.460938 8.210938 C 48.550781 8.140625 48.636719 8.070312 48.726562 8 C 48.808594 7.929688 48.894531 7.863281 48.976562 7.800781 C 49.101562 7.707031 49.21875 7.613281 49.339844 7.515625 C 49.421875 7.449219 49.503906 7.382812 49.589844 7.316406 C 49.722656 7.214844 49.851562 7.109375 49.984375 7.003906 C 50.039062 6.957031 50.101562 6.914062 50.160156 6.871094 Z M 30.875 16.527344 C 30.863281 16.527344 30.851562 16.527344 30.835938 16.527344 C 30.191406 16.574219 29.550781 16.652344 28.914062 16.769531 C 28.894531 16.773438 28.894531 16.773438 28.875 16.773438 C 28.175781 16.902344 27.484375 17.074219 26.808594 17.292969 C 26.796875 17.296875 26.78125 17.304688 26.765625 17.308594 C 26.195312 17.492188 25.636719 17.703125 25.089844 17.949219 C 25.074219 17.953125 25.058594 17.960938 25.042969 17.96875 C 24.597656 18.167969 24.160156 18.378906 23.738281 18.617188 C 23.722656 18.625 23.710938 18.632812 23.695312 18.640625 C 23.148438 18.945312 22.613281 19.28125 22.101562 19.648438 C 22.070312 19.671875 22.039062 19.695312 22.007812 19.714844 C 21.890625 19.800781 21.773438 19.886719 21.65625 19.976562 C 21.628906 20 21.597656 20.023438 21.570312 20.046875 C 21.453125 20.136719 21.335938 20.226562 21.21875 20.324219 C 21.195312 20.34375 21.167969 20.363281 21.144531 20.386719 C 21.058594 20.457031 20.972656 20.527344 20.890625 20.601562 C 20.863281 20.621094 20.839844 20.644531 20.8125 20.664062 C 20.71875 20.746094 20.625 20.828125 20.535156 20.914062 C 20.492188 20.953125 20.449219 20.992188 20.402344 21.03125 C 20.355469 21.074219 20.3125 21.117188 20.269531 21.160156 C 20.242188 21.1875 20.214844 21.210938 20.1875 21.234375 C 20.121094 21.292969 20.0625 21.351562 20 21.410156 C 19.992188 21.421875 19.980469 21.433594 19.96875 21.445312 C 19.945312 21.46875 19.921875 21.492188 19.898438 21.515625 C 19.859375 21.554688 19.824219 21.589844 19.789062 21.625 C 19.765625 21.648438 19.742188 21.671875 19.71875 21.695312 C 19.703125 21.710938 19.703125 21.710938 19.6875 21.726562 C 19.628906 21.785156 19.574219 21.84375 19.519531 21.90625 C 19.496094 21.929688 19.472656 21.957031 19.449219 21.980469 C 19.40625 22.023438 19.367188 22.066406 19.328125 22.113281 C 19.300781 22.144531 19.273438 22.175781 19.242188 22.203125 C 19.175781 22.277344 19.109375 22.355469 19.046875 22.433594 C 19.015625 22.46875 18.984375 22.507812 18.949219 22.542969 C 18.882812 22.617188 18.820312 22.691406 18.757812 22.769531 C 18.746094 22.789062 18.730469 22.804688 18.714844 22.824219 C 18.625 22.933594 18.539062 23.042969 18.453125 23.15625 C 18.429688 23.1875 18.402344 23.21875 18.378906 23.25 C 18.265625 23.398438 18.15625 23.542969 18.054688 23.695312 C 18.035156 23.722656 18.015625 23.75 17.996094 23.777344 C 17.691406 24.199219 17.410156 24.648438 17.152344 25.101562 C 17.140625 25.125 17.140625 25.125 17.128906 25.144531 C 17.015625 25.339844 16.910156 25.53125 16.8125 25.730469 C 16.785156 25.78125 16.757812 25.832031 16.730469 25.882812 C 16.628906 26.070312 16.539062 26.261719 16.453125 26.457031 C 16.441406 26.480469 16.429688 26.507812 16.417969 26.53125 C 16.019531 27.402344 15.695312 28.308594 15.453125 29.238281 C 15.445312 29.269531 15.4375 29.300781 15.429688 29.332031 C 15.101562 30.574219 14.929688 31.863281 14.910156 34.46875 C 14.910156 34.480469 14.914062 34.492188 14.914062 34.503906 C 14.917969 34.582031 14.925781 34.65625 14.933594 34.730469 C 15.078125 34.621094 15.222656 34.511719 15.363281 34.398438 C 15.425781 34.347656 15.484375 34.300781 15.546875 34.253906 C 15.554688 34.246094 15.5625 34.242188 15.570312 34.234375 C 15.613281 34.203125 15.652344 34.171875 15.691406 34.136719 C 15.78125 34.070312 15.871094 33.996094 15.957031 33.925781 C 16.042969 33.859375 16.125 33.792969 16.210938 33.726562 C 16.332031 33.632812 16.453125 33.539062 16.570312 33.441406 C 16.652344 33.375 16.738281 33.308594 16.820312 33.242188 C 16.945312 33.152344 17.0625 33.054688 17.179688 32.960938 C 17.265625 32.890625 17.347656 32.824219 17.433594 32.761719 C 17.554688 32.667969 17.675781 32.570312 17.792969 32.476562 C 17.859375 32.421875 17.929688 32.363281 18 32.3125 C 18.066406 32.261719 18.132812 32.210938 18.195312 32.15625 C 18.304688 32.070312 18.417969 31.980469 18.527344 31.894531 C 18.621094 31.820312 18.714844 31.746094 18.808594 31.671875 C 18.917969 31.585938 19.027344 31.5 19.140625 31.410156 C 19.234375 31.339844 19.328125 31.265625 19.421875 31.191406 C 19.53125 31.101562 19.640625 31.015625 19.75 30.929688 C 19.84375 30.855469 19.9375 30.78125 20.03125 30.707031 C 20.140625 30.617188 20.253906 30.53125 20.363281 30.445312 C 20.457031 30.371094 20.550781 30.296875 20.644531 30.222656 C 20.753906 30.132812 20.863281 30.046875 20.972656 29.960938 C 21.066406 29.886719 21.160156 29.8125 21.253906 29.738281 C 21.363281 29.652344 21.476562 29.5625 21.585938 29.476562 C 21.679688 29.402344 21.773438 29.328125 21.867188 29.253906 C 21.976562 29.167969 22.085938 29.082031 22.195312 28.992188 C 22.289062 28.921875 22.386719 28.847656 22.476562 28.773438 C 22.59375 28.675781 22.714844 28.585938 22.832031 28.492188 C 22.921875 28.421875 23.011719 28.351562 23.097656 28.28125 C 23.179688 28.210938 23.265625 28.144531 23.351562 28.082031 C 23.472656 27.988281 23.589844 27.894531 23.710938 27.796875 C 23.792969 27.726562 23.875 27.664062 23.960938 27.597656 C 24.082031 27.503906 24.203125 27.410156 24.320312 27.3125 C 24.402344 27.246094 24.488281 27.179688 24.574219 27.113281 C 24.695312 27.019531 24.8125 26.925781 24.933594 26.828125 C 25.015625 26.761719 25.097656 26.695312 25.183594 26.628906 C 25.304688 26.539062 25.425781 26.441406 25.542969 26.347656 C 25.613281 26.289062 25.679688 26.234375 25.75 26.183594 C 25.816406 26.132812 25.882812 26.078125 25.949219 26.027344 C 26.058594 25.941406 26.167969 25.851562 26.277344 25.765625 C 26.371094 25.691406 26.464844 25.617188 26.558594 25.542969 C 26.667969 25.457031 26.78125 25.367188 26.890625 25.28125 C 26.984375 25.207031 27.078125 25.132812 27.171875 25.058594 C 27.28125 24.972656 27.390625 24.886719 27.503906 24.796875 C 27.597656 24.726562 27.691406 24.652344 27.78125 24.574219 C 27.890625 24.488281 28.003906 24.402344 28.113281 24.316406 C 28.207031 24.242188 28.300781 24.167969 28.394531 24.09375 C 28.503906 24.003906 28.613281 23.917969 28.726562 23.832031 C 28.820312 23.757812 28.914062 23.683594 29.007812 23.609375 C 29.117188 23.519531 29.226562 23.433594 29.335938 23.347656 C 29.429688 23.273438 29.523438 23.199219 29.617188 23.125 C 29.726562 23.039062 29.835938 22.949219 29.949219 22.863281 C 30.042969 22.789062 30.136719 22.714844 30.230469 22.640625 C 30.347656 22.546875 30.464844 22.453125 30.585938 22.363281 C 30.671875 22.292969 30.761719 22.222656 30.847656 22.148438 C 30.933594 22.082031 31.015625 22.015625 31.101562 21.953125 C 31.222656 21.859375 31.34375 21.761719 31.460938 21.667969 C 31.542969 21.597656 31.628906 21.53125 31.710938 21.46875 C 31.835938 21.375 31.953125 21.28125 32.070312 21.183594 C 32.15625 21.117188 32.238281 21.050781 32.324219 20.984375 C 32.445312 20.890625 32.566406 20.796875 32.683594 20.699219 C 32.75 20.644531 32.820312 20.589844 32.890625 20.535156 C 32.957031 20.484375 33.023438 20.433594 33.085938 20.382812 C 33.195312 20.292969 33.308594 20.207031 33.417969 20.121094 C 33.511719 20.046875 33.605469 19.972656 33.699219 19.898438 C 33.808594 19.808594 33.917969 19.722656 34.03125 19.636719 C 34.125 19.5625 34.21875 19.488281 34.3125 19.414062 C 34.421875 19.324219 34.53125 19.238281 34.640625 19.152344 C 34.734375 19.078125 34.828125 19.003906 34.921875 18.929688 C 35.03125 18.84375 35.140625 18.753906 35.253906 18.667969 C 35.347656 18.59375 35.441406 18.519531 35.535156 18.445312 C 35.644531 18.359375 35.753906 18.273438 35.863281 18.183594 C 35.957031 18.113281 36.050781 18.039062 36.144531 17.960938 C 36.253906 17.875 36.367188 17.789062 36.476562 17.703125 C 36.5 17.683594 36.527344 17.664062 36.550781 17.644531 C 36.558594 17.636719 36.566406 17.632812 36.574219 17.625 C 36.628906 17.582031 36.679688 17.539062 36.730469 17.5 C 36.832031 17.417969 36.933594 17.339844 37.035156 17.265625 C 37.023438 17.234375 37.023438 17.234375 36.992188 17.226562 C 36.949219 17.210938 36.902344 17.199219 36.859375 17.183594 C 36.851562 17.183594 36.839844 17.179688 36.832031 17.175781 C 35.628906 16.820312 34.386719 16.617188 33.136719 16.527344 C 33.125 16.527344 33.113281 16.523438 33.101562 16.523438 C 32.363281 16.472656 31.613281 16.472656 30.875 16.527344 Z M 38.742188 24.988281 C 38.730469 24.996094 38.71875 25.007812 38.703125 25.015625 C 38.695312 25.023438 38.6875 25.03125 38.679688 25.035156 C 38.664062 25.050781 38.644531 25.066406 38.628906 25.078125 C 38.582031 25.113281 38.539062 25.148438 38.492188 25.183594 C 38.402344 25.253906 38.316406 25.324219 38.226562 25.394531 C 38.144531 25.460938 38.0625 25.527344 37.976562 25.59375 C 37.855469 25.6875 37.734375 25.78125 37.617188 25.878906 C 37.550781 25.933594 37.480469 25.988281 37.410156 26.042969 C 37.34375 26.09375 37.277344 26.144531 37.214844 26.195312 C 37.101562 26.285156 36.992188 26.371094 36.882812 26.457031 C 36.789062 26.53125 36.695312 26.605469 36.601562 26.679688 C 36.492188 26.769531 36.382812 26.855469 36.269531 26.941406 C 36.175781 27.015625 36.082031 27.089844 35.988281 27.164062 C 35.878906 27.253906 35.769531 27.339844 35.660156 27.425781 C 35.566406 27.5 35.472656 27.574219 35.378906 27.648438 C 35.269531 27.734375 35.15625 27.824219 35.046875 27.910156 C 34.953125 27.984375 34.859375 28.058594 34.765625 28.132812 C 34.65625 28.21875 34.546875 28.304688 34.4375 28.390625 C 34.34375 28.464844 34.246094 28.539062 34.15625 28.613281 C 34.046875 28.703125 33.933594 28.789062 33.824219 28.875 C 33.730469 28.949219 33.636719 29.023438 33.542969 29.097656 C 33.425781 29.191406 33.308594 29.285156 33.1875 29.378906 C 33.097656 29.449219 33.011719 29.519531 32.921875 29.589844 C 32.839844 29.65625 32.757812 29.722656 32.671875 29.789062 C 32.550781 29.882812 32.429688 29.976562 32.3125 30.074219 C 32.230469 30.140625 32.144531 30.207031 32.058594 30.273438 C 31.9375 30.367188 31.820312 30.460938 31.699219 30.558594 C 31.617188 30.625 31.535156 30.691406 31.449219 30.757812 C 31.328125 30.847656 31.207031 30.945312 31.089844 31.039062 C 31.019531 31.097656 30.953125 31.152344 30.882812 31.203125 C 30.816406 31.253906 30.75 31.308594 30.683594 31.359375 C 30.574219 31.449219 30.464844 31.535156 30.355469 31.621094 C 30.261719 31.695312 30.164062 31.769531 30.074219 31.84375 C 29.964844 31.929688 29.851562 32.019531 29.742188 32.105469 C 29.648438 32.179688 29.554688 32.253906 29.460938 32.328125 C 29.351562 32.414062 29.242188 32.5 29.132812 32.589844 C 29.035156 32.660156 28.941406 32.734375 28.851562 32.808594 C 28.742188 32.898438 28.628906 32.984375 28.519531 33.070312 C 28.425781 33.144531 28.332031 33.21875 28.238281 33.292969 C 28.128906 33.382812 28.019531 33.46875 27.90625 33.554688 C 27.8125 33.628906 27.71875 33.703125 27.625 33.777344 C 27.515625 33.867188 27.40625 33.953125 27.296875 34.039062 C 27.191406 34.121094 27.085938 34.203125 26.984375 34.285156 C 26.921875 34.335938 26.863281 34.382812 26.800781 34.429688 C 26.792969 34.433594 26.789062 34.441406 26.78125 34.445312 C 26.78125 34.449219 26.78125 34.457031 26.78125 34.460938 C 29.984375 34.460938 33.191406 34.460938 36.492188 34.460938 C 36.554688 34.238281 36.554688 34.238281 36.609375 34.019531 C 36.613281 34.007812 36.617188 33.996094 36.617188 33.984375 C 36.621094 33.972656 36.625 33.964844 36.625 33.953125 C 36.632812 33.925781 36.636719 33.902344 36.644531 33.878906 C 36.65625 33.824219 36.667969 33.773438 36.679688 33.722656 C 36.703125 33.636719 36.722656 33.550781 36.742188 33.464844 C 36.765625 33.375 36.785156 33.28125 36.808594 33.191406 C 36.863281 32.953125 36.921875 32.71875 36.976562 32.484375 C 36.980469 32.46875 36.984375 32.449219 36.988281 32.433594 C 37.011719 32.34375 37.03125 32.257812 37.050781 32.171875 C 37.09375 31.992188 37.136719 31.816406 37.179688 31.636719 C 37.183594 31.621094 37.1875 31.601562 37.191406 31.585938 C 37.273438 31.25 37.351562 30.914062 37.433594 30.578125 C 37.554688 30.066406 37.679688 29.550781 37.800781 29.039062 C 37.921875 28.535156 38.042969 28.03125 38.164062 27.527344 C 38.238281 27.207031 38.316406 26.886719 38.390625 26.566406 C 38.40625 26.507812 38.421875 26.453125 38.433594 26.394531 C 38.441406 26.355469 38.453125 26.316406 38.460938 26.28125 C 38.464844 26.269531 38.464844 26.261719 38.46875 26.25 C 38.496094 26.128906 38.527344 26.007812 38.554688 25.886719 C 38.570312 25.816406 38.589844 25.746094 38.605469 25.679688 C 38.613281 25.644531 38.621094 25.613281 38.628906 25.582031 C 38.632812 25.566406 38.636719 25.550781 38.640625 25.535156 C 38.644531 25.511719 38.644531 25.511719 38.648438 25.488281 C 38.65625 25.460938 38.664062 25.433594 38.671875 25.40625 C 38.683594 25.339844 38.699219 25.277344 38.71875 25.214844 C 38.71875 25.203125 38.722656 25.191406 38.726562 25.179688 C 38.730469 25.160156 38.734375 25.140625 38.742188 25.117188 C 38.753906 25.070312 38.757812 25.035156 38.742188 24.988281 Z M 16.953125 41.726562 C 16.972656 41.785156 16.988281 41.828125 17.015625 41.878906 C 17.023438 41.890625 17.027344 41.902344 17.035156 41.914062 C 17.042969 41.925781 17.050781 41.941406 17.058594 41.953125 C 17.066406 41.96875 17.074219 41.980469 17.082031 41.996094 C 17.109375 42.042969 17.136719 42.09375 17.164062 42.140625 C 17.171875 42.148438 17.175781 42.15625 17.183594 42.167969 C 17.320312 42.410156 17.464844 42.648438 17.621094 42.878906 C 17.648438 42.917969 17.675781 42.960938 17.703125 43 C 17.9375 43.359375 18.183594 43.707031 18.445312 44.046875 C 18.453125 44.054688 18.460938 44.0625 18.464844 44.070312 C 18.542969 44.167969 18.621094 44.265625 18.699219 44.363281 C 18.71875 44.390625 18.742188 44.414062 18.761719 44.4375 C 18.835938 44.53125 18.910156 44.617188 18.984375 44.707031 C 19.015625 44.738281 19.042969 44.773438 19.070312 44.808594 C 19.15625 44.90625 19.242188 45 19.328125 45.097656 C 19.371094 45.140625 19.414062 45.1875 19.453125 45.234375 C 19.496094 45.28125 19.535156 45.324219 19.582031 45.367188 C 19.609375 45.390625 19.632812 45.421875 19.65625 45.449219 C 19.710938 45.507812 19.765625 45.566406 19.820312 45.621094 C 19.832031 45.632812 19.839844 45.640625 19.851562 45.652344 C 19.871094 45.671875 19.890625 45.695312 19.914062 45.714844 C 19.945312 45.746094 19.976562 45.777344 20.007812 45.808594 C 20.03125 45.832031 20.050781 45.851562 20.070312 45.871094 C 20.082031 45.882812 20.089844 45.890625 20.097656 45.902344 C 20.15625 45.957031 20.210938 46.007812 20.269531 46.058594 C 20.300781 46.085938 20.332031 46.113281 20.359375 46.144531 C 20.40625 46.191406 20.453125 46.238281 20.503906 46.28125 C 20.535156 46.308594 20.566406 46.335938 20.597656 46.363281 C 20.671875 46.433594 20.746094 46.496094 20.828125 46.5625 C 20.863281 46.589844 20.898438 46.625 20.933594 46.65625 C 21.007812 46.722656 21.085938 46.785156 21.164062 46.847656 C 21.179688 46.863281 21.199219 46.875 21.214844 46.890625 C 21.339844 46.992188 21.46875 47.09375 21.597656 47.191406 C 21.632812 47.21875 21.667969 47.246094 21.703125 47.273438 C 21.859375 47.390625 22.015625 47.507812 22.179688 47.617188 C 22.21875 47.644531 22.257812 47.671875 22.292969 47.699219 C 22.476562 47.828125 22.664062 47.953125 22.855469 48.070312 C 22.867188 48.078125 22.878906 48.085938 22.894531 48.09375 C 23.589844 48.53125 24.308594 48.921875 25.058594 49.253906 C 25.085938 49.265625 25.113281 49.277344 25.140625 49.289062 C 25.601562 49.496094 26.074219 49.671875 26.554688 49.835938 C 26.5625 49.839844 26.574219 49.839844 26.582031 49.84375 C 27.8125 50.265625 29.097656 50.527344 30.90625 50.6875 C 30.917969 50.6875 30.929688 50.691406 30.941406 50.691406 C 31.308594 50.714844 31.679688 50.71875 32.046875 50.71875 C 32.058594 50.71875 32.070312 50.71875 32.078125 50.71875 C 32.144531 50.71875 32.210938 50.71875 32.277344 50.71875 C 32.296875 50.71875 32.316406 50.71875 32.335938 50.71875 C 32.363281 50.71875 32.390625 50.71875 32.417969 50.71875 C 32.433594 50.71875 32.449219 50.71875 32.464844 50.71875 C 32.515625 50.714844 32.5625 50.710938 32.613281 50.703125 C 32.703125 50.34375 32.789062 49.984375 32.875 49.628906 C 32.890625 49.554688 32.910156 49.484375 32.925781 49.414062 C 32.949219 49.308594 32.976562 49.203125 33 49.101562 C 33.0625 48.84375 33.121094 48.585938 33.183594 48.328125 C 33.203125 48.25 33.222656 48.167969 33.242188 48.089844 C 33.421875 47.34375 33.597656 46.601562 33.777344 45.855469 C 33.894531 45.367188 34.011719 44.878906 34.128906 44.390625 C 34.148438 44.296875 34.171875 44.203125 34.195312 44.109375 C 34.335938 43.519531 34.476562 42.929688 34.617188 42.339844 C 34.628906 42.285156 34.640625 42.234375 34.65625 42.179688 C 34.671875 42.117188 34.683594 42.054688 34.699219 41.992188 C 34.703125 41.96875 34.710938 41.949219 34.714844 41.925781 C 34.722656 41.894531 34.730469 41.863281 34.738281 41.832031 C 34.742188 41.808594 34.742188 41.808594 34.75 41.78125 C 34.757812 41.746094 34.757812 41.746094 34.757812 41.726562 C 28.882812 41.726562 23.007812 41.726562 16.953125 41.726562 Z M 41.84375 41.726562 C 41.746094 42.117188 41.746094 42.117188 41.648438 42.503906 C 41.644531 42.527344 41.640625 42.550781 41.632812 42.574219 C 41.621094 42.621094 41.609375 42.671875 41.597656 42.71875 C 41.582031 42.796875 41.5625 42.875 41.542969 42.957031 C 41.539062 42.96875 41.535156 42.984375 41.53125 42.996094 C 41.527344 43.027344 41.519531 43.054688 41.511719 43.082031 C 41.503906 43.128906 41.492188 43.171875 41.480469 43.214844 C 41.398438 43.558594 41.316406 43.902344 41.234375 44.246094 C 41.214844 44.332031 41.191406 44.421875 41.171875 44.507812 C 41.136719 44.652344 41.101562 44.796875 41.070312 44.941406 C 41.015625 45.15625 40.964844 45.371094 40.914062 45.585938 C 40.910156 45.601562 40.90625 45.621094 40.902344 45.640625 C 40.832031 45.933594 40.761719 46.226562 40.691406 46.523438 C 40.648438 46.703125 40.605469 46.878906 40.5625 47.058594 C 40.53125 47.179688 40.503906 47.300781 40.476562 47.421875 C 40.457031 47.488281 40.441406 47.558594 40.425781 47.628906 C 40.347656 47.957031 40.269531 48.285156 40.191406 48.613281 C 40.203125 48.617188 40.210938 48.621094 40.21875 48.625 C 40.257812 48.609375 40.257812 48.609375 40.296875 48.585938 C 40.3125 48.578125 40.328125 48.570312 40.34375 48.558594 C 40.363281 48.550781 40.378906 48.539062 40.398438 48.53125 C 40.414062 48.519531 40.429688 48.511719 40.449219 48.5 C 40.597656 48.417969 40.742188 48.332031 40.890625 48.242188 C 40.90625 48.230469 40.90625 48.230469 40.925781 48.21875 C 41.355469 47.953125 41.773438 47.671875 42.175781 47.371094 C 42.210938 47.34375 42.246094 47.320312 42.285156 47.292969 C 42.425781 47.1875 42.5625 47.078125 42.699219 46.96875 C 42.734375 46.9375 42.769531 46.910156 42.804688 46.882812 C 42.867188 46.828125 42.933594 46.773438 42.996094 46.722656 C 43.042969 46.679688 43.09375 46.640625 43.144531 46.601562 C 43.21875 46.539062 43.292969 46.472656 43.363281 46.402344 C 43.398438 46.375 43.429688 46.34375 43.464844 46.316406 C 43.535156 46.25 43.605469 46.183594 43.679688 46.121094 C 43.695312 46.101562 43.714844 46.085938 43.730469 46.070312 C 43.875 45.9375 44.011719 45.800781 44.152344 45.664062 C 44.183594 45.632812 44.214844 45.601562 44.246094 45.570312 C 44.265625 45.546875 44.289062 45.527344 44.308594 45.507812 C 44.316406 45.496094 44.328125 45.488281 44.335938 45.476562 C 44.390625 45.425781 44.441406 45.367188 44.492188 45.308594 C 44.515625 45.28125 44.539062 45.257812 44.566406 45.234375 C 44.609375 45.191406 44.648438 45.148438 44.6875 45.101562 C 44.714844 45.070312 44.742188 45.039062 44.769531 45.007812 C 44.839844 44.933594 44.90625 44.859375 44.96875 44.78125 C 45 44.742188 45.03125 44.707031 45.0625 44.671875 C 45.128906 44.597656 45.191406 44.523438 45.253906 44.445312 C 45.269531 44.425781 45.285156 44.410156 45.300781 44.390625 C 45.386719 44.28125 45.476562 44.171875 45.5625 44.058594 C 45.585938 44.027344 45.609375 43.996094 45.636719 43.960938 C 45.746094 43.816406 45.855469 43.671875 45.960938 43.523438 C 45.980469 43.492188 46.003906 43.460938 46.027344 43.429688 C 46.242188 43.125 46.441406 42.8125 46.632812 42.496094 C 46.640625 42.488281 46.644531 42.476562 46.652344 42.46875 C 46.726562 42.34375 46.800781 42.21875 46.871094 42.09375 C 46.886719 42.070312 46.886719 42.070312 46.898438 42.046875 C 46.941406 41.972656 46.984375 41.898438 47.023438 41.824219 C 47.03125 41.8125 47.039062 41.800781 47.046875 41.785156 C 47.0625 41.757812 47.0625 41.757812 47.0625 41.726562 C 45.339844 41.726562 43.617188 41.726562 41.84375 41.726562 Z M 41.84375 41.726562 "/>
<path style=" stroke:none;fill-rule:nonzero;fill:rgb(24.313726%,31.764707%,47.843137%);fill-opacity:1;" d="M 50.160156 6.871094 C 50.171875 6.875 50.179688 6.878906 50.191406 6.882812 C 50.1875 6.890625 50.1875 6.898438 50.183594 6.90625 C 49.898438 8.09375 49.898438 8.09375 49.613281 9.285156 C 49.613281 9.296875 49.609375 9.308594 49.605469 9.324219 C 49.570312 9.46875 49.535156 9.613281 49.503906 9.757812 C 49.441406 10.007812 49.382812 10.253906 49.324219 10.503906 C 49.316406 10.53125 49.308594 10.558594 49.304688 10.585938 C 49.148438 11.246094 48.988281 11.90625 48.832031 12.5625 C 48.773438 12.808594 48.714844 13.054688 48.652344 13.300781 C 48.648438 13.328125 48.648438 13.328125 48.640625 13.355469 C 48.613281 13.476562 48.582031 13.597656 48.554688 13.71875 C 48.523438 13.855469 48.488281 13.992188 48.457031 14.132812 C 48.453125 14.148438 48.449219 14.164062 48.441406 14.183594 C 48.382812 14.429688 48.324219 14.675781 48.265625 14.925781 C 48.109375 15.578125 47.953125 16.234375 47.796875 16.890625 C 47.789062 16.917969 47.78125 16.945312 47.777344 16.96875 C 47.71875 17.21875 47.65625 17.46875 47.597656 17.714844 C 47.5625 17.859375 47.527344 18.003906 47.492188 18.148438 C 47.492188 18.164062 47.488281 18.175781 47.484375 18.191406 C 47.363281 18.699219 47.242188 19.210938 47.117188 19.71875 C 47 20.214844 46.878906 20.710938 46.761719 21.210938 C 46.753906 21.234375 46.75 21.261719 46.742188 21.285156 C 46.730469 21.339844 46.71875 21.390625 46.707031 21.445312 C 46.703125 21.457031 46.699219 21.472656 46.695312 21.484375 C 46.691406 21.511719 46.683594 21.539062 46.675781 21.566406 C 46.59375 21.914062 46.507812 22.261719 46.425781 22.613281 C 46.417969 22.648438 46.410156 22.683594 46.402344 22.71875 C 46.300781 23.132812 46.203125 23.542969 46.105469 23.957031 C 46.09375 23.992188 46.085938 24.03125 46.078125 24.066406 C 46.070312 24.101562 46.058594 24.136719 46.050781 24.175781 C 46.035156 24.246094 46.015625 24.320312 46 24.390625 C 45.992188 24.417969 45.992188 24.417969 45.988281 24.445312 C 45.859375 24.96875 45.734375 25.496094 45.609375 26.019531 C 45.480469 26.5625 45.351562 27.105469 45.222656 27.648438 C 45.21875 27.664062 45.210938 27.683594 45.207031 27.703125 C 45.195312 27.757812 45.183594 27.8125 45.167969 27.867188 C 45.15625 27.921875 45.144531 27.972656 45.128906 28.027344 C 45.121094 28.066406 45.113281 28.101562 45.105469 28.136719 C 45.007812 28.542969 44.910156 28.945312 44.8125 29.351562 C 44.804688 29.386719 44.796875 29.421875 44.789062 29.453125 C 44.753906 29.59375 44.722656 29.730469 44.691406 29.867188 C 44.609375 30.199219 44.53125 30.527344 44.453125 30.855469 C 44.425781 30.976562 44.394531 31.097656 44.367188 31.21875 C 44.289062 31.546875 44.210938 31.875 44.132812 32.203125 C 44.089844 32.375 44.046875 32.546875 44.007812 32.71875 C 44 32.746094 44 32.746094 43.996094 32.773438 C 43.859375 33.335938 43.726562 33.898438 43.589844 34.460938 C 43.582031 34.460938 43.574219 34.460938 43.5625 34.460938 C 43.558594 34.488281 43.558594 34.488281 43.558594 34.515625 C 43.550781 34.582031 43.535156 34.644531 43.523438 34.707031 C 43.519531 34.71875 43.515625 34.730469 43.511719 34.742188 C 43.503906 34.78125 43.496094 34.816406 43.488281 34.855469 C 43.480469 34.878906 43.472656 34.90625 43.46875 34.933594 C 43.449219 35.003906 43.433594 35.074219 43.417969 35.144531 C 43.398438 35.210938 43.382812 35.28125 43.367188 35.347656 C 43.324219 35.527344 43.28125 35.703125 43.238281 35.882812 C 43.164062 36.179688 43.09375 36.480469 43.023438 36.777344 C 42.964844 37.03125 42.902344 37.28125 42.84375 37.535156 C 42.828125 37.605469 42.808594 37.675781 42.792969 37.746094 C 42.722656 38.046875 42.648438 38.34375 42.578125 38.640625 C 42.542969 38.777344 42.511719 38.914062 42.480469 39.050781 C 42.472656 39.070312 42.472656 39.070312 42.46875 39.089844 C 42.417969 39.304688 42.367188 39.515625 42.316406 39.730469 C 42.203125 40.214844 42.085938 40.699219 41.96875 41.183594 C 41.953125 41.246094 41.9375 41.308594 41.921875 41.371094 C 41.917969 41.398438 41.910156 41.425781 41.902344 41.453125 C 41.902344 41.464844 41.898438 41.476562 41.894531 41.488281 C 41.890625 41.5 41.890625 41.507812 41.886719 41.519531 C 41.867188 41.597656 41.851562 41.675781 41.835938 41.757812 C 41.8125 41.902344 41.777344 42.042969 41.742188 42.183594 C 41.734375 42.214844 41.726562 42.246094 41.722656 42.273438 C 41.703125 42.355469 41.683594 42.433594 41.664062 42.515625 C 41.644531 42.601562 41.621094 42.6875 41.601562 42.773438 C 41.5625 42.9375 41.523438 43.101562 41.484375 43.269531 C 41.453125 43.394531 41.421875 43.523438 41.390625 43.648438 C 41.382812 43.683594 41.375 43.71875 41.367188 43.753906 C 41.363281 43.773438 41.359375 43.789062 41.355469 43.808594 C 41.285156 44.09375 41.21875 44.382812 41.148438 44.667969 C 41 45.285156 40.851562 45.90625 40.703125 46.523438 C 40.660156 46.703125 40.617188 46.878906 40.574219 47.058594 C 40.546875 47.179688 40.519531 47.300781 40.488281 47.421875 C 40.46875 47.503906 40.449219 47.585938 40.429688 47.667969 C 40.421875 47.703125 40.410156 47.742188 40.402344 47.78125 C 40.390625 47.828125 40.378906 47.875 40.367188 47.921875 C 40.34375 48.027344 40.320312 48.128906 40.296875 48.234375 C 40.285156 48.277344 40.277344 48.324219 40.265625 48.371094 C 40.257812 48.402344 40.253906 48.433594 40.246094 48.464844 C 40.242188 48.480469 40.238281 48.5 40.234375 48.519531 C 40.230469 48.535156 40.226562 48.550781 40.222656 48.570312 C 40.195312 48.636719 40.148438 48.679688 40.082031 48.714844 C 40.074219 48.71875 40.0625 48.722656 40.054688 48.730469 C 40.042969 48.734375 40.03125 48.738281 40.023438 48.746094 C 40.003906 48.753906 40.003906 48.753906 39.988281 48.761719 C 39.953125 48.78125 39.914062 48.796875 39.878906 48.816406 C 39.855469 48.828125 39.828125 48.84375 39.804688 48.855469 C 39.730469 48.894531 39.65625 48.929688 39.582031 48.96875 C 39.570312 48.972656 39.558594 48.976562 39.550781 48.984375 C 39.144531 49.183594 38.730469 49.367188 38.308594 49.53125 C 38.277344 49.542969 38.242188 49.554688 38.210938 49.570312 C 37.667969 49.78125 37.113281 49.964844 36.550781 50.117188 C 36.539062 50.121094 36.527344 50.125 36.515625 50.128906 C 35.960938 50.28125 35.398438 50.402344 34.832031 50.496094 C 34.804688 50.503906 34.773438 50.507812 34.746094 50.511719 C 34.050781 50.636719 33.320312 50.722656 32.613281 50.703125 C 32.628906 50.597656 32.652344 50.496094 32.675781 50.394531 C 32.679688 50.382812 32.679688 50.367188 32.683594 50.351562 C 32.695312 50.304688 32.707031 50.257812 32.71875 50.210938 C 32.726562 50.179688 32.734375 50.144531 32.742188 50.113281 C 32.761719 50.03125 32.78125 49.949219 32.800781 49.871094 C 32.824219 49.777344 32.847656 49.679688 32.867188 49.585938 C 32.878906 49.539062 32.890625 49.492188 32.902344 49.441406 C 32.90625 49.433594 32.90625 49.421875 32.910156 49.414062 C 32.925781 49.347656 32.941406 49.277344 32.960938 49.210938 C 33.011719 48.988281 33.066406 48.761719 33.121094 48.539062 C 33.125 48.527344 33.125 48.511719 33.128906 48.5 C 33.144531 48.433594 33.160156 48.371094 33.175781 48.304688 C 33.207031 48.171875 33.238281 48.042969 33.269531 47.910156 C 33.277344 47.890625 33.277344 47.890625 33.28125 47.871094 C 33.367188 47.5 33.457031 47.132812 33.546875 46.761719 C 33.550781 46.746094 33.554688 46.726562 33.558594 46.710938 C 33.625 46.425781 33.695312 46.140625 33.761719 45.855469 C 33.878906 45.367188 33.996094 44.878906 34.113281 44.390625 C 34.136719 44.296875 34.15625 44.203125 34.179688 44.109375 C 34.214844 43.964844 34.25 43.824219 34.28125 43.679688 C 34.296875 43.617188 34.3125 43.554688 34.328125 43.492188 C 34.46875 42.90625 34.605469 42.324219 34.746094 41.742188 C 28.867188 41.738281 22.992188 41.734375 16.9375 41.726562 C 16.808594 41.496094 16.808594 41.496094 16.75 41.382812 C 16.742188 41.371094 16.738281 41.359375 16.730469 41.34375 C 16.710938 41.304688 16.6875 41.261719 16.667969 41.222656 C 16.660156 41.207031 16.652344 41.191406 16.648438 41.179688 C 16.519531 40.917969 16.398438 40.660156 16.285156 40.394531 C 16.269531 40.363281 16.257812 40.332031 16.242188 40.300781 C 15.722656 39.09375 15.347656 37.816406 15.039062 35.878906 C 15.03125 35.832031 15.027344 35.789062 15.019531 35.742188 C 15.003906 35.621094 14.992188 35.5 14.980469 35.378906 C 14.976562 35.339844 14.972656 35.300781 14.96875 35.265625 C 14.957031 35.152344 14.945312 35.035156 14.9375 34.921875 C 14.933594 34.898438 14.929688 34.871094 14.925781 34.84375 C 14.921875 34.800781 14.921875 34.773438 14.933594 34.730469 C 14.980469 34.675781 15.035156 34.636719 15.09375 34.59375 C 15.117188 34.574219 15.140625 34.558594 15.164062 34.539062 C 15.195312 34.515625 15.226562 34.492188 15.257812 34.46875 C 15.378906 34.375 15.496094 34.28125 15.617188 34.183594 C 15.683594 34.125 15.753906 34.070312 15.824219 34.019531 C 15.890625 33.96875 15.953125 33.917969 16.019531 33.863281 C 16.128906 33.777344 16.242188 33.6875 16.351562 33.601562 C 16.445312 33.527344 16.539062 33.453125 16.632812 33.378906 C 16.742188 33.292969 16.851562 33.203125 16.964844 33.117188 C 17.058594 33.046875 17.152344 32.972656 17.246094 32.894531 C 17.355469 32.808594 17.464844 32.722656 17.574219 32.636719 C 17.667969 32.5625 17.761719 32.488281 17.855469 32.414062 C 17.964844 32.324219 18.074219 32.238281 18.1875 32.152344 C 18.28125 32.078125 18.375 32.003906 18.46875 31.929688 C 18.578125 31.839844 18.6875 31.753906 18.796875 31.667969 C 18.890625 31.59375 18.984375 31.519531 19.078125 31.445312 C 19.1875 31.359375 19.300781 31.269531 19.410156 31.183594 C 19.503906 31.109375 19.597656 31.035156 19.691406 30.960938 C 19.800781 30.875 19.910156 30.789062 20.019531 30.699219 C 20.113281 30.628906 20.210938 30.554688 20.300781 30.476562 C 20.417969 30.382812 20.539062 30.289062 20.65625 30.199219 C 20.746094 30.128906 20.835938 30.058594 20.921875 29.988281 C 21.003906 29.917969 21.089844 29.851562 21.175781 29.789062 C 21.296875 29.695312 21.414062 29.601562 21.535156 29.503906 C 21.617188 29.433594 21.699219 29.367188 21.785156 29.304688 C 21.90625 29.210938 22.027344 29.117188 22.144531 29.019531 C 22.226562 28.953125 22.3125 28.886719 22.398438 28.820312 C 22.519531 28.726562 22.636719 28.632812 22.757812 28.535156 C 22.824219 28.480469 22.894531 28.425781 22.960938 28.371094 C 23.027344 28.320312 23.09375 28.269531 23.160156 28.21875 C 23.269531 28.128906 23.378906 28.042969 23.492188 27.957031 C 23.585938 27.882812 23.679688 27.808594 23.773438 27.734375 C 23.882812 27.644531 23.992188 27.558594 24.101562 27.472656 C 24.195312 27.398438 24.289062 27.324219 24.382812 27.25 C 24.492188 27.160156 24.605469 27.074219 24.714844 26.988281 C 24.808594 26.914062 24.902344 26.839844 24.996094 26.765625 C 25.105469 26.679688 25.214844 26.589844 25.324219 26.503906 C 25.421875 26.429688 25.515625 26.359375 25.605469 26.28125 C 25.714844 26.195312 25.828125 26.109375 25.9375 26.023438 C 26.03125 25.949219 26.125 25.875 26.21875 25.800781 C 26.328125 25.710938 26.4375 25.625 26.550781 25.539062 C 26.644531 25.464844 26.738281 25.390625 26.828125 25.316406 C 26.941406 25.226562 27.050781 25.140625 27.160156 25.054688 C 27.253906 24.980469 27.347656 24.90625 27.441406 24.832031 C 27.558594 24.738281 27.675781 24.644531 27.796875 24.550781 C 27.886719 24.484375 27.972656 24.410156 28.0625 24.339844 C 28.144531 24.273438 28.226562 24.207031 28.3125 24.140625 C 28.433594 24.046875 28.554688 23.953125 28.671875 23.855469 C 28.757812 23.789062 28.839844 23.722656 28.925781 23.65625 C 29.046875 23.566406 29.164062 23.46875 29.285156 23.375 C 29.367188 23.304688 29.453125 23.238281 29.535156 23.175781 C 29.65625 23.082031 29.777344 22.988281 29.894531 22.890625 C 29.980469 22.820312 30.0625 22.757812 30.148438 22.691406 C 30.269531 22.597656 30.390625 22.503906 30.507812 22.40625 C 30.574219 22.351562 30.644531 22.296875 30.714844 22.242188 C 30.78125 22.191406 30.847656 22.140625 30.910156 22.089844 C 31.019531 22 31.132812 21.914062 31.242188 21.824219 C 31.335938 21.753906 31.429688 21.679688 31.523438 21.601562 C 31.632812 21.515625 31.742188 21.429688 31.855469 21.34375 C 31.949219 21.269531 32.042969 21.195312 32.136719 21.121094 C 32.246094 21.03125 32.355469 20.945312 32.464844 20.859375 C 32.558594 20.785156 32.652344 20.710938 32.746094 20.636719 C 32.855469 20.546875 32.964844 20.460938 33.078125 20.375 C 33.171875 20.300781 33.265625 20.226562 33.359375 20.152344 C 33.46875 20.066406 33.578125 19.976562 33.6875 19.890625 C 33.78125 19.816406 33.875 19.742188 33.96875 19.667969 C 34.078125 19.582031 34.191406 19.496094 34.300781 19.410156 C 34.394531 19.335938 34.488281 19.261719 34.582031 19.1875 C 34.691406 19.097656 34.800781 19.011719 34.910156 18.925781 C 35.007812 18.851562 35.097656 18.777344 35.191406 18.703125 C 35.308594 18.609375 35.429688 18.515625 35.546875 18.421875 C 35.636719 18.351562 35.726562 18.28125 35.8125 18.210938 C 35.894531 18.144531 35.980469 18.078125 36.066406 18.011719 C 36.1875 17.917969 36.304688 17.824219 36.425781 17.726562 C 36.507812 17.660156 36.589844 17.59375 36.675781 17.527344 C 36.726562 17.488281 36.777344 17.449219 36.824219 17.410156 C 37 17.273438 37 17.273438 37.074219 17.226562 C 37.121094 17.195312 37.167969 17.160156 37.210938 17.125 C 37.21875 17.117188 37.226562 17.109375 37.238281 17.105469 C 37.3125 17.042969 37.386719 16.984375 37.464844 16.921875 C 37.535156 16.863281 37.609375 16.804688 37.6875 16.746094 C 37.808594 16.652344 37.925781 16.558594 38.046875 16.460938 C 38.128906 16.394531 38.210938 16.328125 38.296875 16.261719 C 38.417969 16.167969 38.539062 16.074219 38.65625 15.976562 C 38.738281 15.910156 38.824219 15.84375 38.910156 15.777344 C 39.03125 15.6875 39.148438 15.589844 39.269531 15.492188 C 39.351562 15.425781 39.433594 15.359375 39.519531 15.296875 C 39.640625 15.203125 39.761719 15.109375 39.878906 15.011719 C 39.949219 14.953125 40.015625 14.902344 40.085938 14.847656 C 40.152344 14.796875 40.21875 14.746094 40.285156 14.691406 C 40.394531 14.605469 40.503906 14.515625 40.613281 14.429688 C 40.710938 14.355469 40.800781 14.28125 40.894531 14.207031 C 40.988281 14.132812 41.082031 14.058594 41.175781 13.984375 C 41.21875 13.953125 41.261719 13.921875 41.300781 13.886719 C 41.351562 13.847656 41.402344 13.808594 41.449219 13.769531 C 41.535156 13.703125 41.621094 13.636719 41.707031 13.566406 C 41.816406 13.480469 41.925781 13.394531 42.035156 13.308594 C 42.132812 13.234375 42.226562 13.160156 42.316406 13.085938 C 42.386719 13.027344 42.457031 12.972656 42.527344 12.917969 C 42.535156 12.910156 42.542969 12.90625 42.550781 12.898438 C 42.621094 12.84375 42.6875 12.792969 42.757812 12.742188 C 42.796875 12.714844 42.796875 12.714844 42.824219 12.679688 C 42.855469 12.636719 42.890625 12.609375 42.933594 12.578125 C 42.949219 12.566406 42.96875 12.554688 42.984375 12.539062 C 42.992188 12.535156 43 12.527344 43.011719 12.523438 C 43.054688 12.488281 43.097656 12.453125 43.140625 12.417969 C 43.210938 12.363281 43.28125 12.304688 43.351562 12.25 C 43.359375 12.246094 43.367188 12.238281 43.375 12.230469 C 43.414062 12.199219 43.457031 12.167969 43.496094 12.136719 C 43.585938 12.066406 43.675781 11.996094 43.761719 11.925781 C 43.84375 11.855469 43.929688 11.789062 44.015625 11.726562 C 44.136719 11.632812 44.257812 11.539062 44.375 11.441406 C 44.457031 11.371094 44.542969 11.308594 44.625 11.242188 C 44.746094 11.148438 44.867188 11.054688 44.984375 10.957031 C 45.070312 10.890625 45.152344 10.824219 45.238281 10.757812 C 45.359375 10.664062 45.480469 10.570312 45.597656 10.472656 C 45.664062 10.417969 45.734375 10.363281 45.804688 10.308594 C 45.871094 10.257812 45.933594 10.207031 46 10.15625 C 46.109375 10.066406 46.222656 9.980469 46.332031 9.894531 C 46.425781 9.820312 46.519531 9.746094 46.613281 9.671875 C 46.722656 9.582031 46.832031 9.496094 46.945312 9.410156 C 47.039062 9.335938 47.132812 9.261719 47.226562 9.1875 C 47.335938 9.101562 47.445312 9.011719 47.554688 8.925781 C 47.648438 8.851562 47.742188 8.777344 47.835938 8.703125 C 47.945312 8.617188 48.054688 8.53125 48.167969 8.441406 C 48.261719 8.367188 48.355469 8.296875 48.449219 8.21875 C 48.558594 8.132812 48.667969 8.046875 48.777344 7.960938 C 48.871094 7.886719 48.964844 7.8125 49.058594 7.738281 C 49.167969 7.648438 49.28125 7.5625 49.390625 7.476562 C 49.484375 7.402344 49.578125 7.328125 49.671875 7.253906 C 49.832031 7.125 49.996094 6.996094 50.160156 6.871094 Z M 38.742188 24.988281 C 38.730469 24.996094 38.71875 25.007812 38.703125 25.015625 C 38.695312 25.023438 38.6875 25.03125 38.679688 25.035156 C 38.664062 25.050781 38.644531 25.066406 38.628906 25.078125 C 38.582031 25.113281 38.539062 25.148438 38.492188 25.183594 C 38.402344 25.253906 38.316406 25.324219 38.226562 25.394531 C 38.144531 25.460938 38.0625 25.527344 37.976562 25.59375 C 37.855469 25.6875 37.734375 25.78125 37.617188 25.878906 C 37.550781 25.933594 37.480469 25.988281 37.410156 26.042969 C 37.34375 26.09375 37.277344 26.144531 37.214844 26.195312 C 37.101562 26.285156 36.992188 26.371094 36.882812 26.457031 C 36.789062 26.53125 36.695312 26.605469 36.601562 26.679688 C 36.492188 26.769531 36.382812 26.855469 36.269531 26.941406 C 36.175781 27.015625 36.082031 27.089844 35.988281 27.164062 C 35.878906 27.253906 35.769531 27.339844 35.660156 27.425781 C 35.566406 27.5 35.472656 27.574219 35.378906 27.648438 C 35.269531 27.734375 35.15625 27.824219 35.046875 27.910156 C 34.953125 27.984375 34.859375 28.058594 34.765625 28.132812 C 34.65625 28.21875 34.546875 28.304688 34.4375 28.390625 C 34.34375 28.464844 34.246094 28.539062 34.15625 28.613281 C 34.046875 28.703125 33.933594 28.789062 33.824219 28.875 C 33.730469 28.949219 33.636719 29.023438 33.542969 29.097656 C 33.425781 29.191406 33.308594 29.285156 33.1875 29.378906 C 33.097656 29.449219 33.011719 29.519531 32.921875 29.589844 C 32.839844 29.65625 32.757812 29.722656 32.671875 29.789062 C 32.550781 29.882812 32.429688 29.976562 32.3125 30.074219 C 32.230469 30.140625 32.144531 30.207031 32.058594 30.273438 C 31.9375 30.367188 31.820312 30.460938 31.699219 30.558594 C 31.617188 30.625 31.535156 30.691406 31.449219 30.757812 C 31.328125 30.847656 31.207031 30.945312 31.089844 31.039062 C 31.019531 31.097656 30.953125 31.152344 30.882812 31.203125 C 30.816406 31.253906 30.75 31.308594 30.683594 31.359375 C 30.574219 31.449219 30.464844 31.535156 30.355469 31.621094 C 30.261719 31.695312 30.164062 31.769531 30.074219 31.84375 C 29.964844 31.929688 29.851562 32.019531 29.742188 32.105469 C 29.648438 32.179688 29.554688 32.253906 29.460938 32.328125 C 29.351562 32.414062 29.242188 32.5 29.132812 32.589844 C 29.035156 32.660156 28.941406 32.734375 28.851562 32.808594 C 28.742188 32.898438 28.628906 32.984375 28.519531 33.070312 C 28.425781 33.144531 28.332031 33.21875 28.238281 33.292969 C 28.128906 33.382812 28.019531 33.46875 27.90625 33.554688 C 27.8125 33.628906 27.71875 33.703125 27.625 33.777344 C 27.515625 33.867188 27.40625 33.953125 27.296875 34.039062 C 27.191406 34.121094 27.085938 34.203125 26.984375 34.285156 C 26.921875 34.335938 26.863281 34.382812 26.800781 34.429688 C 26.792969 34.433594 26.789062 34.441406 26.78125 34.445312 C 26.78125 34.449219 26.78125 34.457031 26.78125 34.460938 C 29.984375 34.460938 33.191406 34.460938 36.492188 34.460938 C 36.554688 34.238281 36.554688 34.238281 36.609375 34.019531 C 36.613281 34.007812 36.617188 33.996094 36.617188 33.984375 C 36.621094 33.972656 36.625 33.964844 36.625 33.953125 C 36.632812 33.925781 36.636719 33.902344 36.644531 33.878906 C 36.65625 33.824219 36.667969 33.773438 36.679688 33.722656 C 36.703125 33.636719 36.722656 33.550781 36.742188 33.464844 C 36.765625 33.375 36.785156 33.28125 36.808594 33.191406 C 36.863281 32.953125 36.921875 32.71875 36.976562 32.484375 C 36.980469 32.46875 36.984375 32.449219 36.988281 32.433594 C 37.011719 32.34375 37.03125 32.257812 37.050781 32.171875 C 37.09375 31.992188 37.136719 31.816406 37.179688 31.636719 C 37.183594 31.621094 37.1875 31.601562 37.191406 31.585938 C 37.273438 31.25 37.351562 30.914062 37.433594 30.578125 C 37.554688 30.066406 37.679688 29.550781 37.800781 29.039062 C 37.921875 28.535156 38.042969 28.03125 38.164062 27.527344 C 38.238281 27.207031 38.316406 26.886719 38.390625 26.566406 C 38.40625 26.507812 38.421875 26.453125 38.433594 26.394531 C 38.441406 26.355469 38.453125 26.316406 38.460938 26.28125 C 38.464844 26.269531 38.464844 26.261719 38.46875 26.25 C 38.496094 26.128906 38.527344 26.007812 38.554688 25.886719 C 38.570312 25.816406 38.589844 25.746094 38.605469 25.679688 C 38.613281 25.644531 38.621094 25.613281 38.628906 25.582031 C 38.632812 25.566406 38.636719 25.550781 38.640625 25.535156 C 38.644531 25.511719 38.644531 25.511719 38.648438 25.488281 C 38.65625 25.460938 38.664062 25.433594 38.671875 25.40625 C 38.683594 25.339844 38.699219 25.277344 38.71875 25.214844 C 38.71875 25.203125 38.722656 25.191406 38.726562 25.179688 C 38.730469 25.160156 38.734375 25.140625 38.742188 25.117188 C 38.753906 25.070312 38.757812 25.035156 38.742188 24.988281 Z M 38.742188 24.988281 "/>
</g>
</svg>
